<svg xmlns="http://www.w3.org/2000/svg" viewBox="0 0 203.04 205.09"><defs><style>.cls-1{fill:#dbe8ec;}.cls-2{fill:#bde1ec;}.cls-3{fill:#032052;}.cls-4{fill:#fff;}.cls-5{fill:#253236;}.cls-6{fill:#e3e4ff;}.cls-7{opacity:0.2;}.cls-8{fill:#f15a24;}.cls-9{fill:#0e054a;}</style></defs><g id="Layer_2" data-name="Layer 2"><g id="monsters"><g id="layer"><g id="jessica"><g id="face"><path class="cls-1" d="M100.44,130.78c-6.81,17.74-23.47,27.85-37.2,22.58S43.89,129.44,50.7,111.69,74.16,83.84,87.89,89.11,107.25,113,100.44,130.78Z"/><path class="cls-2" d="M56.1,117.1c6.81-17.74,23.46-27.85,37.2-22.58a20.57,20.57,0,0,1,4.54,2.42,21.91,21.91,0,0,0-10-7.83C74.16,83.84,57.5,94,50.7,111.69c-6,15.64-2.36,32,8,39.25C52.67,142.53,51.3,129.59,56.1,117.1Z"/><path class="cls-3" d="M99.17,121.27c0,8.32-6.45,15.07-14.4,15.07s-14.4-6.75-14.4-15.07,6.45-15.06,14.4-15.06S99.17,113,99.17,121.27Z"/><path class="cls-4" d="M78.71,122.87,61.22,128s-.68,8.23,4.12,12.35l14.75-13Z"/><path class="cls-5" d="M92.78,121.27a8,8,0,1,1-8-8.37A8.2,8.2,0,0,1,92.78,121.27Z"/><path class="cls-1" d="M134,125.64c6.81,17.74,23.46,27.85,37.2,22.58s19.35-23.93,12.54-41.67S160.32,78.7,146.58,84,127.23,107.9,134,125.64Z"/><path class="cls-2" d="M178.38,112c-6.81-17.74-23.46-27.85-37.2-22.58a21.34,21.34,0,0,0-4.55,2.43,21.88,21.88,0,0,1,10-7.83c13.74-5.27,30.39,4.84,37.2,22.58,6,15.63,2.35,32-8,39.24C181.81,137.39,183.17,124.44,178.38,112Z"/><path class="cls-3" d="M135.3,116.13c0,8.32,6.45,15.06,14.41,15.06s14.4-6.74,14.4-15.06-6.45-15.07-14.4-15.07S135.3,107.81,135.3,116.13Z"/><path class="cls-4" d="M155.76,117.73l17.5,5.14s.68,8.24-4.12,12.35l-14.75-13Z"/><ellipse class="cls-5" cx="149.71" cy="116.13" rx="8.01" ry="8.38"/><path class="cls-6" d="M104.66,185.9c-.18,7.31.35,16.51,4.12,17,6.29.82,15.31,3.28,20.23,1.64,3.11-1,3.38-11.36,3.16-18.81A60,60,0,0,1,104.66,185.9Z"/><path class="cls-7" d="M119.36,8.49c-.4-1.17-4.62-2.16-6.07-2.51-50.34-12.34-72,.51-88,26.45-20,31.39-7.6,47.4-7.71,64.14,0,9-3.41,18.2-8.41,25.49A51.22,51.22,0,0,1,5,127.38,44.62,44.62,0,0,1,0,132c10.71-9.34,16.46-23.85,16.24-35.39A67.81,67.81,0,0,0,14.29,83.4c-3.87-17.77-3.58-31.73,9.23-52.06a75.65,75.65,0,0,1,18.13-20.2A52,52,0,0,1,66.56.52C85.08-2,118.43,5.32,119.36,8.49Z"/><path class="cls-7" d="M87.46,7.8S71,4,50.42,13.29s-25,26.41-23.67,52.13,4.46,33.27-5.49,44.94c0,0,16.12-9.61,20.93-23s-.69-31.22,2.4-49.74S71.34,8.83,87.46,7.8Z"/><path class="cls-8" d="M38.41,149.11c54.26,51.44,102.18,31.7,104.83,31.78a111,111,0,0,0,43.41-24A117.59,117.59,0,0,0,203,139.51c-6.76,12.94-19.55,26.69-33,35.28C124.79,204.2,69.9,190.27,38.41,149.11Z"/><path class="cls-4" d="M107.29,193.69c.16.9,1.2,6.47,1.91,6.83s13.11,2.18,16.2,1,4-8.49,4-8.49S118.3,198.66,107.29,193.69Z"/><path class="cls-9" d="M178,66.28s-4.46-5.49-15.44-7.2-16.12,7.2-11,10,19.55-.35,26.06,5.14S178,66.28,178,66.28Z"/><path class="cls-9" d="M66.84,64.22s4.45-5.48,15.43-7.2,16.12,7.2,11,9.95-19.55-.34-26.06,5.14S66.84,64.22,66.84,64.22Z"/></g></g></g></g></g></svg>