<svg xmlns="http://www.w3.org/2000/svg" viewBox="0 0 406.84 498.61"><defs><style>.cls-1{fill:#9e0039;}.cls-2{fill:#7e002e;}.cls-3{fill:#a8003d;}.cls-4{fill:#bd124e;}.cls-5{fill:#940e3e;}.cls-6{opacity:0.5;}.cls-14,.cls-7{fill:#fff;}.cls-8{fill:#8a0d3a;}.cls-9{fill:#d44a7c;}.cls-10{fill:#d41c5f;}.cls-11{fill:#dc99b1;}.cls-12{fill:aqua;}.cls-13{fill:#0ab1bf;}.cls-14{opacity:0.32;}.cls-15{fill:#333f3d;}</style></defs><g id="Layer_2" data-name="Layer 2"><g id="monsters"><g id="layer"><g id="raphael"><g id="body"><path class="cls-1" d="M317,223.19s11.13-35.83,11.82-46.26-10.78-20.18-4.87-33.05,27.84-8.7,36.88-18.09,13.22,7,15.65,39-44.87,81.4-44.87,81.4Z"/><path class="cls-2" d="M376.44,164.75c-2.43-32-6.61-48.35-15.65-39s-31,5.22-36.88,18.09a19.07,19.07,0,0,0-.84,2.18c9.7.84,22,3.32,28.5,10.18,10.95,11.56-12.57,76.37-16,85.49C347,228.91,378.44,191,376.44,164.75Z"/><path class="cls-3" d="M296.26,63.17C287.21,55,278,90.31,275.91,107.53s23,40.37,53.41,42.5c15,1.05,34.53-8.51,34.53-8.51l-22.19-39.73s-18.27,8.87-28.18,0S307.22,73.09,296.26,63.17Z"/><path class="cls-2" d="M341.66,101.79s-18.27,8.87-28.18,0-6.26-28.7-17.22-38.62A4.3,4.3,0,0,0,293.9,62a25.76,25.76,0,0,0-.16,3.12c0,10.31.24,41.72,9.08,49.08,5.9,4.92,28,2.61,42,.54Z"/><path class="cls-3" d="M318.17,0s60.42-2.72,79.38,39.54c25.05,55.84-5.93,88.59-29.28,100.3-7.73,3.87-33.55,8.35-33.55,8.35l-13.94-2.09S344.27,77.78,339.57,60s-51.14-30.78-53.23-44.35S318.17,0,318.17,0Z"/><path class="cls-4" d="M361.72,49.57c-4.26-14.08-7.86-3.93-17-12.77s-2.62-23.23-28.47-27.49c-9.39-1.54-19.6-.58-28.79,1.27a7.17,7.17,0,0,0-1.1,5.11C288.43,29.26,334.87,42.3,339.57,60c2.62,9.91-3.54,35.61-9.5,56.37,4.95-3.8,32.7-25.65,30-36.08C357.14,68.87,366,63.64,361.72,49.57Z"/><path class="cls-5" d="M377.12,111c2.5,1,3.56,4.19,2.38,7s-4.18,4.29-6.68,3.24-3.56-4.19-2.38-7S374.62,110,377.12,111Z"/><path class="cls-5" d="M365.74,126.66a4.08,4.08,0,1,1-4.87,2.35A3.83,3.83,0,0,1,365.74,126.66Z"/><path class="cls-5" d="M395.18,108.5a4.08,4.08,0,1,1-4.49-3A3.82,3.82,0,0,1,395.18,108.5Z"/><path class="cls-5" d="M390.28,118.31a4.08,4.08,0,1,1-4.5-3A3.84,3.84,0,0,1,390.28,118.31Z"/><g class="cls-6"><path class="cls-7" d="M310.51,24c13.79,9.8,42,14.47,42.49,40.48a32,32,0,0,1-6,19.43,30.29,30.29,0,0,0-2.78-37.36c-11-11.4-40-16.47-36.48-22a2,2,0,0,1,2.71-.6l.07.05Z"/></g><g class="cls-6"><path class="cls-7" d="M297.39,22.13c-5.73-3.73-7.72-7.26-5.93-10.47a2,2,0,0,1,3.43,1.92c-.56,1,1.27,3.06,4.65,5.26A2,2,0,0,1,297.39,22.13Z"/></g><path class="cls-1" d="M135.5,284.64s-22,30.42-25.95,40.09,3.79,22.56-5.92,32.87S74.48,357,62.91,363s-10.31-10.81-2.42-41.92S129,258.22,129,258.22Z"/><path class="cls-2" d="M60.49,321.08C52.6,352.19,51.35,369,62.91,363s31,4.92,40.72-5.4a18.49,18.49,0,0,0,1.5-1.79c-8.93-3.89-19.8-10.16-23.77-18.74-6.7-14.44,36.25-68.37,42.37-75.94C108.84,269.65,67,295.58,60.49,321.08Z"/><path class="cls-3" d="M104.12,442.92c6,10.64,26-19.9,33.43-35.56s-8.92-45.59-37.08-57.31C86.56,344.27,65,347.12,65,347.12l8.37,44.73s20.14-2.59,26.71,9S96.9,430,104.12,442.92Z"/><path class="cls-2" d="M73.4,391.85s20.14-2.59,26.71,9-3.21,29.2,4,42.09a4.29,4.29,0,0,0,1.86,1.87,25.39,25.39,0,0,0,1.15-2.9c3.29-9.77,13.07-39.63,7-49.42-4-6.54-25.71-11.4-39.67-13.91Z"/><path class="cls-3" d="M63.23,495.78S5.1,479.1.6,433c-5.95-60.91,33.85-82.08,59.72-85.74,8.55-1.21,34.45,2.78,34.45,2.78l12.55,6.42s-44,57.31-45.25,75.62,38.67,45.48,36.32,59S63.23,495.78,63.23,495.78Z"/><path class="cls-4" d="M37.74,435c-.45,14.7,6.2,6.23,12.06,17.52S44.88,475.33,68,487.6c8.41,4.46,18.39,6.8,27.7,8a7.14,7.14,0,0,0,2.66-4.5c2.35-13.52-37.52-40.69-36.32-59,.68-10.23,14.71-32.62,27-50.4-5.89,2-39.16,13.89-39.94,24.64C48.24,418.11,38.19,420.26,37.74,435Z"/><path class="cls-5" d="M42.73,371.79c-2-1.79-2-5.11,0-7.42s5.32-2.73,7.35-.94,2,5.11,0,7.42S44.77,373.58,42.73,371.79Z"/><path class="cls-5" d="M58.5,360.6a4.08,4.08,0,1,1,5.36-.68A3.83,3.83,0,0,1,58.5,360.6Z"/><path class="cls-5" d="M24.8,368.43a3.84,3.84,0,0,1,4.65-2.75,3.61,3.61,0,1,1-1.34,7A3.85,3.85,0,0,1,24.8,368.43Z"/><path class="cls-5" d="M32.58,360.69a3.84,3.84,0,0,1,4.65-2.75,3.6,3.6,0,1,1-4.65,2.75Z"/><g class="cls-6"><path class="cls-7" d="M78.13,475.51C68.18,461.82,43,448.4,50.76,423.6a32,32,0,0,1,11.92-16.5,30.29,30.29,0,0,0-9.27,36.3C60.22,457.72,86.1,471.77,81,475.91a2,2,0,0,1-2.76-.3l-.06-.08Z"/></g><g class="cls-6"><path class="cls-7" d="M90,481.46c4.24,5.36,5,9.34,2.29,11.81a2,2,0,0,1-2.64-2.91c.84-.76-.23-3.3-2.73-6.47A2,2,0,0,1,90,481.46Z"/></g><path class="cls-8" d="M170.75,400.79s-16.7,14.61-11.83,37.57,23.65,36.88,36.87,29.92l1.39-27.13s-16-13.92-11.82-28.53S170.75,400.79,170.75,400.79Z"/><path class="cls-8" d="M272.05,400s17.41,13.75,13.71,36.92S264,475,250.44,468.67l-2.76-27s15.28-14.71,10.37-29.09S272.05,400,272.05,400Z"/><path class="cls-9" d="M258.76,187.37C229.54,178,165.91,181.73,137.89,204c-30.43,24.22-41.72,64.3-41.72,64.3l154.76,1,36-55.84S288,196.77,258.76,187.37Z"/><path class="cls-10" d="M90.21,245.82s-27.13,42.78-5.74,90.79,68.15,81.68,138.81,80.88c82-.93,137.23-86.1,128.36-134.63s-57.4-95.49-57.4-95.49l-16.7,29.22-27.65-16.17L230.58,227l-21.39-16.18-18.27,31.84-29.74-27.14S109.52,262.51,90.21,245.82Z"/><path class="cls-11" d="M277.24,215.34l-27.73-16.86-19.29,26L208.62,208c-.27.46-7.73,13.29-18.18,31.65-7.17-6.52-22.07-19.9-29.27-26.35-2.55,2.1-29.67,27.33-51.63,34.18A31.61,31.61,0,0,1,99.62,249a15.49,15.49,0,0,1-9.41-3.19,15.62,15.62,0,0,0,9.37,3.85,32.31,32.31,0,0,0,10.27-1c17.35-4.55,37.72-19.22,51.29-30.84,42.17,39-9.37-8.59,30.25,27.92,2.73-4.74,9.54-16.45,18.39-32L231,229.57l19.34-27.24c37.48,21.08-9.83-5.52,27.59,15.51.11-.21,12.42-23,16.33-30.47C288.48,196.64,282.9,206,277.24,215.34Z"/><path class="cls-3" d="M351.64,282.86c-8.87-48.52-57.4-95.49-57.4-95.49s38.35,53.3,29.85,108.93-57.6,128.28-184.57,99.48q-2.69-.61-5.24-1.12c23.37,14.75,53.1,23.24,89,22.83C305.27,416.56,360.51,331.39,351.64,282.86Z"/><path class="cls-2" d="M134.28,394.66a149,149,0,0,0,23.18,11.11c22.75,8.62,52.44,12,75.62,9.64,58-5.94,107.42-57.89,116.43-108.09,7.38-41.19-26.94-90.71-55.27-119.95,22.32,21.11,49.05,56.71,57,86.77,12.9,48.53-24.75,104.11-68.45,128.71-25.25,14.14-57,21.56-101.08,11.68A143,143,0,0,1,134.28,394.66Z"/><path class="cls-12" d="M186.74,170.29c2.44,14.64-4.35,28-15.15,29.77s-21.54-8.62-24-23.26,4.35-28,15.15-29.76S184.31,155.65,186.74,170.29Z"/><path class="cls-12" d="M262.1,153.42c-4.67,26.3-22.41,45.14-39.62,42.08s-27.39-26.85-22.72-53.14,22.4-45.14,39.62-42.08S266.76,127.13,262.1,153.42Z"/><path class="cls-13" d="M248.61,104.31c7.56,9.94,10.91,26.16,7.84,43.47-4.67,26.29-22.4,45.13-39.62,42.08a21.92,21.92,0,0,1-9.23-4c3.93,5.17,9,8.64,14.88,9.68,17.21,3.06,35-15.78,39.62-42.08C265.85,132.27,260,112.73,248.61,104.31Z"/><path class="cls-5" d="M209.8,379.12s-4.17,9.95,13.78,14.83,30.75-15.8,22.12-25.82S210.84,366.74,209.8,379.12Z"/><path class="cls-5" d="M262.37,384.16c-.67,1.61,4.53,11.7,14.22,7.47s14.6-19.54,4.86-25.12S262.37,384.16,262.37,384.16Z"/><path class="cls-5" d="M257.72,352c-2.84,18.38,12.81,14.42,19.17,4.64s4.17-26.16-5.09-24.76S258.65,346,257.72,352Z"/><path class="cls-5" d="M300,355.43c2.41,3.46,12.59,8.67,16.23-4.52S290.3,341.49,300,355.43Z"/><path class="cls-5" d="M302.44,301.28c0,1.08-.85,22.26,2.3,29,3,6.44,18.3.87,15.29-19.63S302.74,291.79,302.44,301.28Z"/><path class="cls-5" d="M220.17,399.36a5.73,5.73,0,1,1-7.64,3A5.81,5.81,0,0,1,220.17,399.36Z"/><path class="cls-5" d="M253.31,394.78a3.77,3.77,0,1,1-4.78,2.08A3.68,3.68,0,0,1,253.31,394.78Z"/><path class="cls-5" d="M327.32,284.93c2.5,1.05,3.57,4.19,2.38,7s-4.17,4.28-6.67,3.23-3.57-4.19-2.38-7S324.82,283.88,327.32,284.93Z"/><path class="cls-14" d="M118,278.05c-.6,1.15-9.67,33.07,3.15,63.19,9.45,21.69,27.08,36.14,49.16,45.38-17.67-3.91-35.12-11.82-48.21-24.65C81.72,322.5,94.68,261.62,93.41,270.05a13.09,13.09,0,1,1,24.56,8Z"/><path class="cls-15" d="M244.9,132.85c0,10.57-6.38,19.14-14.24,19.14s-14.23-8.57-14.23-19.14,6.37-19.15,14.23-19.15S244.9,122.27,244.9,132.85Z"/><path class="cls-15" d="M179.61,164.75c0,7.32-5.38,13.26-12,13.26s-12-5.94-12-13.26,5.38-13.25,12-13.25S179.61,157.43,179.61,164.75Z"/><path class="cls-7" d="M212.47,135.65c-4.5,21.73-3.79,50.93,18,43.39-22,9.24-25-21.25-21.88-44.09a2,2,0,1,1,3.87.67Z"/><path class="cls-7" d="M164.39,188.8c-9.57-1.51-13.9-11.11-14.72-20.12-.25-2.76,4.09-2.9,3.93-.06C153.87,169.48,152,184.84,164.39,188.8Z"/><path class="cls-7" d="M175.19,157.88a4.42,4.42,0,1,1-4.41-4.42A4.41,4.41,0,0,1,175.19,157.88Z"/><path class="cls-7" d="M245.88,117.63a6.63,6.63,0,1,1-6.63-6.38A6.51,6.51,0,0,1,245.88,117.63Z"/></g></g></g></g></g></svg>