<svg xmlns="http://www.w3.org/2000/svg" viewBox="0 0 735.46 177.5"><defs><style>.cls-1{fill:#190e61;}</style></defs><g id="Layer_2" data-name="Layer 2"><g id="monsters"><g id="layer"><g id="raphael"><path class="cls-1" d="M117.6,113.7q24.6,0,32.4,6.3,3.3,2.7,3.3,11.7,0,20.4-11.1,30.6a15.24,15.24,0,0,1-10.8,3.9q-13.8,0-37.8-15.9-19.5-12.9-29.4-23.7-9,18-10.5,20.4-8.1,12.6-16.8,12.6-16.2,0-33.6-113.7Q0,24.3,0,22.8q0-9.3,3.9-11.7Q21.3,0,46.2,0q32.7,0,68.4,19.2,41.1,22.2,41.1,52.2Q155.7,96.9,117.6,113.7ZM73.5,79.2q-2.1,11.1-3.3,18,19.2-3,19.2-9.3,0-3-6.45-6.3T73.5,79.2Z"/><path class="cls-1" d="M199.8,94.2l-.6-6.3q-2.7-1.5-19.5-5.4-14.4-3.3-16.5-7.8-5.7-12-5.7-21,0-4.2,2.1-17.1,1.5-9.3,27.3-9.3a152.07,152.07,0,0,1,33.9,3.9q21,4.8,30.6,13.2,8.39,7.5,8.4,26.4,0,18.3-11.1,51.3-12.9,38.7-27,38.7a98.1,98.1,0,0,1-36.9-7.5q-23.12-9.3-23.1-23.1,0-7.8,8.4-16.8Q176.1,107.1,199.8,94.2Zm-1.2,38.1q9.9,2.1,10.8,2.1c5,0,7.5-3,7.5-9,0-1.2-1.16-2.35-3.45-3.45a13.88,13.88,0,0,0-5.55-1.65c-4,0-6.6,2.3-7.8,6.9Q199.2,130.2,198.6,132.3Z"/><path class="cls-1" d="M322.92,129.9q-1.8,0-11.67.6-2.08,8.1-8.37,29.1-6.28,19.8-18.25,17.7-20.34-3.6-20.33-69V77.7l-.9-9a131.86,131.86,0,0,1-.6-13.8q0-18,6-20.1a35,35,0,0,1,10.5-1.2q10.49,0,33.3,3.3,24.58,3.6,36,11.7,14.68,10.8,14.7,33.3,0,9-2.7,23.4-3.28,17.4-19.14,21Q336.38,127.2,322.92,129.9ZM314.4,85.5a58.84,58.84,0,0,0-1.2,11.7q2.08.3,7.35-1.2c3.49-1,5.25-2.1,5.25-3.3Q325.8,88.5,314.4,85.5Z"/><path class="cls-1" d="M406.49,102.6l-1.2,1.2q-1.8,28.8-2.4,31.5-3.9,18.6-16.8,18.6a27.66,27.66,0,0,1-7.5-1.2q-2.1-5.1-8.7-66.6l-7.8-72.9q-.9-9,11.4-9,10.2,0,28.2,6.3,15.6,5.4,16.2,7.2a76.91,76.91,0,0,1,.9,12q0,9.9-5.7,38.1l.9.6q56.7-3,56.7,43.2,0,10.2-6,30.3-6.9,23.4-14.4,23.4-4.8,0-20.1-8.85t-15.9-12.75q-.6-5.4,1.2-14.7,2.1-10.5,2.1-14.4Q417.59,104.4,406.49,102.6Z"/><path class="cls-1" d="M511.79,94.2l-.6-6.3q-2.7-1.5-19.5-5.4-14.4-3.3-16.5-7.8-5.7-12-5.7-21,0-4.2,2.1-17.1,1.5-9.3,27.3-9.3a152.07,152.07,0,0,1,33.9,3.9q21,4.8,30.6,13.2,8.4,7.5,8.4,26.4,0,18.3-11.1,51.3-12.9,38.7-27,38.7a98.1,98.1,0,0,1-36.9-7.5q-23.1-9.3-23.1-23.1,0-7.8,8.4-16.8Q488.09,107.1,511.79,94.2Zm-1.2,38.1q9.9,2.1,10.8,2.1,7.5,0,7.5-9,0-1.8-3.45-3.45a13.84,13.84,0,0,0-5.55-1.65q-6,0-7.8,6.9Q511.19,130.2,510.59,132.3Z"/><path class="cls-1" d="M633.29,114q7.5,11.7,7.5,13.2,0,3.9-9,10.8t-13.2,6.9q-8.4,0-22.65-9t-16.65-16.8A68.78,68.78,0,0,1,576,98.4q0-27.9,21-46.5,19.8-17.7,48.3-19.2,12.3-.6,21.9,12.6,9,12,9,24.6Q676.19,97.8,633.29,114Zm5.4-31.8q0-6.9-4.5-6.9-16.8,0-19.5,5.1-.6,1.2,0,8.7Q617.09,89.4,638.69,82.2Z"/><path class="cls-1" d="M735.29,30q1.49,12.6-9.9,64.35t-18,62.25c-1.8,2.8-4.91,4.2-9.3,4.2q-6,0-9-9.3-.62-.6-3-14.1-9.62-51-9.6-93.3,0-15,1.2-18.3,2.7-7.8,15.9-12.3a61.7,61.7,0,0,1,20.7-3.6q18.59,0,20.1,12.3Z"/></g></g></g></g></svg>