<svg xmlns="http://www.w3.org/2000/svg" viewBox="0 0 406.84 498.61"><g data-name="Layer 2"><path class="prefix__cls-1" d="M317 223.19s11.13-35.83 11.82-46.26-10.78-20.18-4.87-33.05 27.84-8.7 36.88-18.09 13.22 7 15.65 39-44.87 81.4-44.87 81.4z"/><path class="prefix__cls-2" d="M376.44 164.75c-2.43-32-6.61-48.35-15.65-39s-31 5.22-36.88 18.09a19.07 19.07 0 00-.84 2.18c9.7.84 22 3.32 28.5 10.18 10.95 11.56-12.57 76.37-16 85.49 11.43-12.78 42.87-50.69 40.87-76.94z"/><path class="prefix__cls-3" d="M296.26 63.17C287.21 55 278 90.31 275.91 107.53s23 40.37 53.41 42.5c15 1.05 34.53-8.51 34.53-8.51l-22.19-39.73s-18.27 8.87-28.18 0-6.26-28.7-17.22-38.62z"/><path class="prefix__cls-2" d="M341.66 101.79s-18.27 8.87-28.18 0-6.26-28.7-17.22-38.62A4.3 4.3 0 00293.9 62a25.76 25.76 0 00-.16 3.12c0 10.31.24 41.72 9.08 49.08 5.9 4.92 28 2.61 42 .54z"/><path class="prefix__cls-3" d="M318.17 0s60.42-2.72 79.38 39.54c25.05 55.84-5.93 88.59-29.28 100.3-7.73 3.87-33.55 8.35-33.55 8.35l-13.94-2.09s23.49-68.32 18.79-86.1-51.14-30.78-53.23-44.35S318.17 0 318.17 0z"/><path class="prefix__cls-4" d="M361.72 49.57c-4.26-14.08-7.86-3.93-17-12.77s-2.62-23.23-28.47-27.49c-9.39-1.54-19.6-.58-28.79 1.27a7.17 7.17 0 00-1.1 5.11c2.07 13.57 48.51 26.61 53.21 44.31 2.62 9.91-3.54 35.61-9.5 56.37 4.95-3.8 32.7-25.65 30-36.08-2.93-11.42 5.93-16.65 1.65-30.72z"/><path class="prefix__cls-5" d="M377.12 111c2.5 1 3.56 4.19 2.38 7s-4.18 4.29-6.68 3.24-3.56-4.19-2.38-7 4.18-4.24 6.68-3.24zM365.74 126.66a4.08 4.08 0 11-4.87 2.35 3.83 3.83 0 014.87-2.35zM395.18 108.5a4.08 4.08 0 11-4.49-3 3.82 3.82 0 014.49 3zM390.28 118.31a4.08 4.08 0 11-4.5-3 3.84 3.84 0 014.5 3z"/><g class="prefix__cls-6"><path class="prefix__cls-7" d="M310.51 24c13.79 9.8 42 14.47 42.49 40.48a32 32 0 01-6 19.43 30.29 30.29 0 00-2.78-37.36c-11-11.4-40-16.47-36.48-22a2 2 0 012.71-.6l.07.05z"/></g><g class="prefix__cls-6"><path class="prefix__cls-7" d="M297.39 22.13c-5.73-3.73-7.72-7.26-5.93-10.47a2 2 0 013.43 1.92c-.56 1 1.27 3.06 4.65 5.26a2 2 0 01-2.15 3.29z"/></g><path class="prefix__cls-1" d="M135.5 284.64s-22 30.42-25.95 40.09 3.79 22.56-5.92 32.87-29.15-.6-40.72 5.4-10.31-10.81-2.42-41.92S129 258.22 129 258.22z"/><path class="prefix__cls-2" d="M60.49 321.08C52.6 352.19 51.35 369 62.91 363s31 4.92 40.72-5.4a18.49 18.49 0 001.5-1.79c-8.93-3.89-19.8-10.16-23.77-18.74-6.7-14.44 36.25-68.37 42.37-75.94-14.89 8.52-56.73 34.45-63.24 59.95z"/><path class="prefix__cls-3" d="M104.12 442.92c6 10.64 26-19.9 33.43-35.56s-8.92-45.59-37.08-57.31C86.56 344.27 65 347.12 65 347.12l8.37 44.73s20.14-2.59 26.71 9-3.18 29.15 4.04 42.07z"/><path class="prefix__cls-2" d="M73.4 391.85s20.14-2.59 26.71 9-3.21 29.2 4 42.09a4.29 4.29 0 001.86 1.87 25.39 25.39 0 001.15-2.9c3.29-9.77 13.07-39.63 7-49.42-4-6.54-25.71-11.4-39.67-13.91z"/><path class="prefix__cls-3" d="M63.23 495.78S5.1 479.1.6 433c-5.95-60.91 33.85-82.08 59.72-85.74 8.55-1.21 34.45 2.78 34.45 2.78l12.55 6.42s-44 57.31-45.25 75.62 38.67 45.48 36.32 59-35.16 4.7-35.16 4.7z"/><path class="prefix__cls-4" d="M37.74 435c-.45 14.7 6.2 6.23 12.06 17.52S44.88 475.33 68 487.6c8.41 4.46 18.39 6.8 27.7 8a7.14 7.14 0 002.66-4.5c2.35-13.52-37.52-40.69-36.32-59 .68-10.23 14.71-32.62 27-50.4-5.89 2-39.16 13.89-39.94 24.64-.86 11.77-10.91 13.92-11.36 28.66z"/><path class="prefix__cls-5" d="M42.73 371.79c-2-1.79-2-5.11 0-7.42s5.32-2.73 7.35-.94 2 5.11 0 7.42-5.31 2.73-7.35.94zM58.5 360.6a4.08 4.08 0 115.36-.68 3.83 3.83 0 01-5.36.68zM24.8 368.43a3.84 3.84 0 014.65-2.75 3.61 3.61 0 11-1.34 7 3.85 3.85 0 01-3.31-4.25zM32.58 360.69a3.84 3.84 0 014.65-2.75 3.6 3.6 0 11-4.65 2.75z"/><g class="prefix__cls-6"><path class="prefix__cls-7" d="M78.13 475.51C68.18 461.82 43 448.4 50.76 423.6a32 32 0 0111.92-16.5 30.29 30.29 0 00-9.27 36.3c6.81 14.32 32.69 28.37 27.59 32.51a2 2 0 01-2.76-.3l-.06-.08z"/></g><g class="prefix__cls-6"><path class="prefix__cls-7" d="M90 481.46c4.24 5.36 5 9.34 2.29 11.81a2 2 0 01-2.64-2.91c.84-.76-.23-3.3-2.73-6.47a2 2 0 013.08-2.43z"/></g><path class="prefix__cls-8" d="M170.75 400.79s-16.7 14.61-11.83 37.57 23.65 36.88 36.87 29.92l1.39-27.13s-16-13.92-11.82-28.53-14.61-11.83-14.61-11.83zM272.05 400s17.41 13.75 13.71 36.92S264 475 250.44 468.67l-2.76-27s15.28-14.71 10.37-29.09 14-12.58 14-12.58z"/><path class="prefix__cls-9" d="M258.76 187.37c-29.22-9.37-92.85-5.64-120.87 16.63-30.43 24.22-41.72 64.3-41.72 64.3l154.76 1 36-55.84s1.07-16.69-28.17-26.09z"/><path class="prefix__cls-10" d="M90.21 245.82s-27.13 42.78-5.74 90.79 68.15 81.68 138.81 80.88c82-.93 137.23-86.1 128.36-134.63s-57.4-95.49-57.4-95.49l-16.7 29.22-27.65-16.17L230.58 227l-21.39-16.18-18.27 31.84-29.74-27.14s-51.66 46.99-70.97 30.3z"/><path class="prefix__cls-11" d="M277.24 215.34l-27.73-16.86-19.29 26-21.6-16.48c-.27.46-7.73 13.29-18.18 31.65-7.17-6.52-22.07-19.9-29.27-26.35-2.55 2.1-29.67 27.33-51.63 34.18a31.61 31.61 0 01-9.92 1.52 15.49 15.49 0 01-9.41-3.19 15.62 15.62 0 009.37 3.85 32.31 32.31 0 0010.27-1c17.35-4.55 37.72-19.22 51.29-30.84 42.17 39-9.37-8.59 30.25 27.92 2.73-4.74 9.54-16.45 18.39-32L231 229.57l19.34-27.24c37.48 21.08-9.83-5.52 27.59 15.51.11-.21 12.42-23 16.33-30.47-5.78 9.27-11.36 18.63-17.02 27.97z"/><path class="prefix__cls-3" d="M351.64 282.86c-8.87-48.52-57.4-95.49-57.4-95.49s38.35 53.3 29.85 108.93-57.6 128.28-184.57 99.48q-2.69-.61-5.24-1.12c23.37 14.75 53.1 23.24 89 22.83 81.99-.93 137.23-86.1 128.36-134.63z"/><path class="prefix__cls-2" d="M134.28 394.66a149 149 0 0023.18 11.11c22.75 8.62 52.44 12 75.62 9.64 58-5.94 107.42-57.89 116.43-108.09 7.38-41.19-26.94-90.71-55.27-119.95 22.32 21.11 49.05 56.71 57 86.77 12.9 48.53-24.75 104.11-68.45 128.71-25.25 14.14-57 21.56-101.08 11.68a143 143 0 01-47.43-19.87z"/><path class="prefix__cls-12" d="M186.74 170.29c2.44 14.64-4.35 28-15.15 29.77s-21.54-8.62-24-23.26 4.35-28 15.15-29.76 21.57 8.61 24 23.25zM262.1 153.42c-4.67 26.3-22.41 45.14-39.62 42.08s-27.39-26.85-22.72-53.14 22.4-45.14 39.62-42.08 27.38 26.85 22.72 53.14z"/><path class="prefix__cls-13" d="M248.61 104.31c7.56 9.94 10.91 26.16 7.84 43.47-4.67 26.29-22.4 45.13-39.62 42.08a21.92 21.92 0 01-9.23-4c3.93 5.17 9 8.64 14.88 9.68 17.21 3.06 35-15.78 39.62-42.08 3.75-21.19-2.1-40.73-13.49-49.15z"/><path class="prefix__cls-5" d="M209.8 379.12s-4.17 9.95 13.78 14.83 30.75-15.8 22.12-25.82-34.86-1.39-35.9 10.99zM262.37 384.16c-.67 1.61 4.53 11.7 14.22 7.47s14.6-19.54 4.86-25.12-19.08 17.65-19.08 17.65zM257.72 352c-2.84 18.38 12.81 14.42 19.17 4.64s4.17-26.16-5.09-24.76S258.65 346 257.72 352zM300 355.43c2.41 3.46 12.59 8.67 16.23-4.52s-25.93-9.42-16.23 4.52zM302.44 301.28c0 1.08-.85 22.26 2.3 29 3 6.44 18.3.87 15.29-19.63s-17.29-18.86-17.59-9.37zM220.17 399.36a5.73 5.73 0 11-7.64 3 5.81 5.81 0 017.64-3zM253.31 394.78a3.77 3.77 0 11-4.78 2.08 3.68 3.68 0 014.78-2.08zM327.32 284.93c2.5 1.05 3.57 4.19 2.38 7s-4.17 4.28-6.67 3.23-3.57-4.19-2.38-7 4.17-4.28 6.67-3.23z"/><path class="prefix__cls-14" d="M118 278.05c-.6 1.15-9.67 33.07 3.15 63.19 9.45 21.69 27.08 36.14 49.16 45.38-17.67-3.91-35.12-11.82-48.21-24.65-40.38-39.47-27.42-100.35-28.69-91.92a13.09 13.09 0 1124.56 8z"/><path class="prefix__cls-15" d="M244.9 132.85c0 10.57-6.38 19.14-14.24 19.14s-14.23-8.57-14.23-19.14 6.37-19.15 14.23-19.15 14.24 8.57 14.24 19.15zM179.61 164.75c0 7.32-5.38 13.26-12 13.26s-12-5.94-12-13.26 5.38-13.25 12-13.25 12 5.93 12 13.25z"/><path class="prefix__cls-7" d="M212.47 135.65c-4.5 21.73-3.79 50.93 18 43.39-22 9.24-25-21.25-21.88-44.09a2 2 0 113.87.67zM164.39 188.8c-9.57-1.51-13.9-11.11-14.72-20.12-.25-2.76 4.09-2.9 3.93-.06.27.86-1.6 16.22 10.79 20.18zM175.19 157.88a4.42 4.42 0 11-4.41-4.42 4.41 4.41 0 014.41 4.42zM245.88 117.63a6.63 6.63 0 11-6.63-6.38 6.51 6.51 0 016.63 6.38z"/></g></svg>