<svg xmlns="http://www.w3.org/2000/svg" viewBox="0 0 390.27 476.29"><defs><style>.cls-1{isolation:isolate;}.cls-2{fill:#42210b;}.cls-3{fill:#4d260d;}.cls-4{fill:#fbb03b;}.cls-5,.cls-6{fill:#fbbe5f;}.cls-6{opacity:0.78;mix-blend-mode:multiply;}.cls-7{fill:#fbecd5;}.cls-8{fill:#040216;}.cls-9{fill:#0e054a;}.cls-10{fill:#5c4374;}.cls-11{fill:aqua;}.cls-12{fill:#0ab1bf;}.cls-13{fill:#333f3d;}.cls-14{fill:#fff;}.cls-15{fill:#6c5481;}.cls-16{fill:#e1ebdf;}.cls-17{fill:#4e3861;}.cls-18{fill:#7d5a9c;}</style></defs><g class="cls-1"><g id="Layer_2" data-name="Layer 2"><g id="monsters"><g id="layer"><g id="sophia"><g id="body"><path class="cls-2" d="M146.8,314.85s-1,.16-2.85.27c-6.84.42-25.94.18-57-10.71-39.66-13.91-65.4-61.92-65.4-61.92S27.13,289.8,0,307.89c0,0,39,25.74,36.87,48,0,0,21.57-16.7,36.18-2.79s15.53,18.1,15.53,18.1,19.26-43.84,45.7-34.1C147.4,341.94,146.8,314.85,146.8,314.85Z"/><path class="cls-3" d="M9.06,307.65s36.32-18.9,40.5-16.2-7.61,53-7.61,53S42.93,313.54,9.06,307.65Z"/><path class="cls-3" d="M47.84,344.71s13-35.83,20.86-37.31,16.2,48.35,16.2,48.35S70.42,331.94,47.84,344.71Z"/><path class="cls-3" d="M89.07,353.54s-8.84-40.25-1.72-40.74,40.5,12.76,40.5,12.76S94.71,331.21,89.07,353.54Z"/><path class="cls-3" d="M44.16,284.09,27,261.51s2,23.56-9.08,33.87C17.9,295.38,42.19,290,44.16,284.09Z"/><path class="cls-2" d="M243.47,320.08a27,27,0,0,0,2.85.28c6.84.41,25.94.18,57-10.71,39.66-13.92,65.4-61.93,65.4-61.93s-5.56,47.32,21.57,65.41c0,0-39,25.74-36.87,48,0,0-21.57-16.7-36.18-2.78s-15.53,18.1-15.53,18.1-19.26-43.84-45.7-34.1C242.87,347.18,243.47,320.08,243.47,320.08Z"/><path class="cls-3" d="M381.21,312.88s-36.32-18.9-40.5-16.2,7.61,53,7.61,53S347.34,318.77,381.21,312.88Z"/><path class="cls-3" d="M342.43,349.94s-13-35.83-20.86-37.3S305.37,361,305.37,361,319.85,337.18,342.43,349.94Z"/><path class="cls-3" d="M301.2,358.78S310,318.53,302.92,318s-40.5,12.76-40.5,12.76S295.56,336.44,301.2,358.78Z"/><path class="cls-3" d="M346.11,289.32l17.18-22.58s-2,23.56,9.08,33.87C372.37,300.61,348.08,295.21,346.11,289.32Z"/><path class="cls-4" d="M94,78.09c.35,12.18,46.16,16.51,46.16,16.51s.69,16.35-15,22.27-28.53,18.78-31,24-35.48-11.48-44.53-17-16-37.58-3.83-47.66c0,0-9.21-24.88,8-33.23,0,0,2.43-9.72,16.49-14.94,8.56-3.18,20.8-9.23,30-6.84,8.69,2.28,19.29,4.46,27.53,7.76,4.43,1.76,8.48,5,10,9.55,3.35,9.67-8.79,21.66-18.62,15.78C100,42.75,93.63,65.92,94,78.09Z"/><path class="cls-5" d="M69.55,123.33c7.16,3.49,14.68,6.74,19.22,8.08,6.23-7.86,18.67-18.34,32.94-23.73a12.63,12.63,0,0,0,6.74-5.58,124.67,124.67,0,0,1-19.61-6.35C87.34,102.48,76.16,114.8,69.55,123.33Z"/><path class="cls-5" d="M95.08,46.92a34.61,34.61,0,0,1,4,3,23.81,23.81,0,0,1,14.77-6.71c3.52-.22,10.65,3.91,13.52,2a3.21,3.21,0,0,0,1.29-3.47c-.59-2.08-3-2.95-5.09-3.51-8.44-2.25-17.59-6-26.24-7-7.9-.87-16.31,3.25-23.56,5.93A26.14,26.14,0,0,0,69.89,39C79.2,39.7,87.33,41.86,95.08,46.92Z"/><path class="cls-5" d="M60.83,50.48l-2.68,1.3c-5.6,2.71-5.35,10.37-4.41,15.65,11.06-2.71,24.56-1.66,35.15,2.23a34.4,34.4,0,0,1,3.9-11.52A66.93,66.93,0,0,0,60.83,50.48Z"/><path class="cls-5" d="M55,115.54l.55.33c12.38-12.38,24-21.58,41.91-26.54a28.52,28.52,0,0,1-4.71-4.41,177.67,177.67,0,0,0-39.18-2.48c-2.33,1.83-4.34,4.42-4.38,12.12C49.11,104.41,52.86,113.66,55,115.54Z"/><path class="cls-6" d="M108.84,95.75a77.4,77.4,0,0,0-24.73,12.73,85.49,85.49,0,0,0,16.22,11.61,81.06,81.06,0,0,1,21.38-12.41,12.63,12.63,0,0,0,6.74-5.58A124.67,124.67,0,0,1,108.84,95.75Z"/><path class="cls-6" d="M75.37,99.17a77.43,77.43,0,0,1,22-9.84,28.52,28.52,0,0,1-4.71-4.41,197.66,197.66,0,0,0-25.89-2.63A44,44,0,0,0,75.37,99.17Z"/><path class="cls-6" d="M92.79,58.14a66.29,66.29,0,0,0-18.17-6.4,37.69,37.69,0,0,0-7,14.18,64.64,64.64,0,0,1,21.3,3.74A34.4,34.4,0,0,1,92.79,58.14Z"/><path class="cls-6" d="M127.4,45.23a3.24,3.24,0,0,0,1.4-2.67c-.85-.09-1.43-.14-1.61-.14-1,0-17.34-6.54-29.45-3.93a48,48,0,0,0-11.42,3.94,46.55,46.55,0,0,1,8.76,4.49,34.61,34.61,0,0,1,4,3,23.81,23.81,0,0,1,14.77-6.71C117.4,43,124.53,47.13,127.4,45.23Z"/><path class="cls-7" d="M84.33,28.44A48.49,48.49,0,0,0,66.1,39.94c-3.3,3.44-11.4,11.78-8,16.81A2.56,2.56,0,0,0,60.31,58c5.22-.53,3.72-4.21,10.93-11.89A47,47,0,0,1,87,34.88c3.62-1.58,1-7.83-2.71-6.44Z"/><path class="cls-7" d="M50.19,71.68c-2.5,5.78-5.71,17.15-1.28,21.06,1.85,1.62,4.4,1.33,5.63-1.31C56.61,87,55.68,85.21,58,75,59,70.51,52.2,67,50.19,71.68Z"/><path class="cls-4" d="M289.7,57.47C289.35,69.65,243.54,74,243.54,74s-.7,16.35,15,22.26,28.52,18.79,30.95,24,35.49-11.48,44.53-17,16-37.57,3.83-47.66c0,0,9.22-24.87-8-33.22,0,0-2.43-9.73-16.5-14.95-8.55-3.18-20.8-9.23-30-6.83C274.66,2.82,264.07,5,255.83,8.3c-4.43,1.77-8.49,5-10.05,9.56-3.35,9.67,8.79,21.66,18.63,15.77C283.64,22.13,290,45.3,289.7,57.47Z"/><path class="cls-5" d="M314.12,102.72c-7.16,3.48-14.67,6.74-19.21,8.08-6.23-7.86-18.68-18.34-33-23.74a12.73,12.73,0,0,1-6.74-5.57,125.85,125.85,0,0,0,19.62-6.36C296.33,81.87,307.51,94.19,314.12,102.72Z"/><path class="cls-5" d="M288.59,26.3a37.69,37.69,0,0,0-4,3A23.83,23.83,0,0,0,269.8,22.6c-3.52-.21-10.66,3.92-13.53,2A3.22,3.22,0,0,1,255,21.14c.59-2.08,3-2.94,5.1-3.5,8.43-2.26,17.59-6,26.23-7,7.9-.88,16.31,3.24,23.56,5.92a26.28,26.28,0,0,1,3.92,1.81C304.47,19.08,296.35,21.24,288.59,26.3Z"/><path class="cls-5" d="M322.84,29.86l2.69,1.3c5.59,2.71,5.34,10.38,4.4,15.65-11.05-2.71-24.56-1.66-35.14,2.23a34.67,34.67,0,0,0-3.91-11.51A67,67,0,0,1,322.84,29.86Z"/><path class="cls-5" d="M328.71,94.93l-.55.33c-12.38-12.39-24-21.59-41.9-26.55a29.24,29.24,0,0,0,4.7-4.4,177.14,177.14,0,0,1,39.19-2.48c2.33,1.83,4.33,4.41,4.37,12.12C334.57,83.79,330.81,93.05,328.71,94.93Z"/><path class="cls-6" d="M274.84,75.13a77.51,77.51,0,0,1,24.73,12.74,85.89,85.89,0,0,1-16.23,11.6A81,81,0,0,0,262,87.06a12.73,12.73,0,0,1-6.74-5.57A125.85,125.85,0,0,0,274.84,75.13Z"/><path class="cls-6" d="M308.3,78.55a77.92,77.92,0,0,0-22-9.84,29.24,29.24,0,0,0,4.7-4.4,199.69,199.69,0,0,1,25.9-2.64A43.89,43.89,0,0,1,308.3,78.55Z"/><path class="cls-6" d="M290.88,37.53a66.14,66.14,0,0,1,18.18-6.4,37.86,37.86,0,0,1,7,14.17A64.8,64.8,0,0,0,294.79,49,34.67,34.67,0,0,0,290.88,37.53Z"/><path class="cls-6" d="M256.27,24.61a3.21,3.21,0,0,1-1.4-2.67c.85-.08,1.44-.13,1.61-.13,1,0,17.35-6.55,29.45-3.93a48.27,48.27,0,0,1,11.43,3.94,46.57,46.57,0,0,0-8.77,4.48,37.69,37.69,0,0,0-4,3A23.83,23.83,0,0,0,269.8,22.6C266.28,22.39,259.14,26.52,256.27,24.61Z"/><path class="cls-7" d="M299.35,7.83a48.42,48.42,0,0,1,18.23,11.49c3.29,3.45,11.4,11.79,8,16.81a2.55,2.55,0,0,1-2.2,1.27c-5.21-.53-3.71-4.22-10.92-11.9a47.39,47.39,0,0,0-15.81-11.24c-3.62-1.58-1-7.83,2.72-6.43Z"/><path class="cls-7" d="M333.48,51.06c7.82,18.1.51,24.89-3.15,21.34-3-2.94-2.71-7.25-3.29-11.07-.36-2.34-.85-4.66-1.38-7C324.64,49.89,331.47,46.4,333.48,51.06Z"/><path class="cls-8" d="M177.34,413s29.22,49.05,21.4,51.66-25.05-6.27-37.05-3.66-17.74,10.44-11,14.09,49.57-2.08,56.36-2.61,15.65,2.09,15.65-3.65-12-13.57-15.65-23.48-1.57-30.27-1.57-30.27Z"/><path class="cls-9" d="M247.23,413S218,462,225.83,464.65s25-6.27,37-3.66,17.74,10.44,11,14.09-49.57-2.08-56.36-2.61-15.65,2.09-15.65-3.65,12-13.57,15.65-23.48,1.57-30.27,1.57-30.27Z"/><path class="cls-10" d="M202.91,75.38s-30.79-9.92-59,1-35.49,40.7-53.75,51.14S62,182.87,62,209s8.35,43.31,8.35,43.31,4.18-13.57,11.48-13,3.66,26.61,3.66,26.61,8.87-9.4,13,2.61,2.61,18.78,11,28.7S133,309.67,133,309.67s3.13-15.66,8.35-4.18-8.87,11.48-18.79,39.66,28.86,89.63,28.86,89.63,11.32-8.23,18.63-14.49,27.53,15.14,27.53,15.14L226.86,421l33,13.89S279.1,413,283.27,370.2,279.1,329.5,268.14,318s0-16.7,5.74-16.18,7.3,9.4,7.3,9.4,12.53-6.79,13.05-25.57,4.17-30.27,11.48-24,0,17.22,0,17.22,20.87-11.48,22.44-30.78-2.61-31.83,4.17-26.62,14.61,16.18,14.61,16.18,5.22-91.32-19.83-116.89S240,45.11,202.91,75.38Z"/><path class="cls-11" d="M190.84,162c2.91,17.54-5.21,33.5-18.15,35.65S146.9,187.3,144,169.76s5.21-33.49,18.15-35.64S187.92,144.44,190.84,162Z"/><path class="cls-11" d="M266.29,151c-4.67,26.3-22.41,45.14-39.62,42.08S199.28,166.25,204,140s22.41-45.13,39.62-42.08S271,124.73,266.29,151Z"/><path class="cls-12" d="M252.8,101.92c7.56,9.94,10.92,26.16,7.84,43.46-4.66,26.29-22.4,45.13-39.61,42.08a21.9,21.9,0,0,1-9.24-4c3.93,5.17,9,8.64,14.88,9.68,17.21,3.06,35-15.78,39.62-42.08C270.05,129.87,264.2,110.34,252.8,101.92Z"/><path class="cls-13" d="M249.09,130.45c0,10.57-6.37,19.14-14.24,19.14s-14.23-8.57-14.23-19.14,6.37-19.14,14.23-19.14S249.09,119.88,249.09,130.45Z"/><path class="cls-13" d="M182.3,155.34c0,8.76-6.45,15.87-14.4,15.87s-14.41-7.11-14.41-15.87,6.45-15.88,14.41-15.88S182.3,146.57,182.3,155.34Z"/><path class="cls-14" d="M216.66,133.25c-4.5,21.73-3.79,50.93,18,43.39-22,9.24-25.06-21.24-21.89-44.08a2,2,0,1,1,3.88.66Z"/><path class="cls-14" d="M164.07,184.14c-11.46-1.81-16.65-13.31-17.63-24.1-.3-3.31,4.9-3.47,4.71-.08C151.47,161,149.21,179.4,164.07,184.14Z"/><path class="cls-14" d="M177,147.11a5.29,5.29,0,1,1-5.3-5.29A5.29,5.29,0,0,1,177,147.11Z"/><path class="cls-14" d="M250.07,115.23a6.63,6.63,0,1,1-6.63-6.38A6.51,6.51,0,0,1,250.07,115.23Z"/><path class="cls-15" d="M161.72,324.83S145,339.55,144.54,359.19s23.56,55,23.56,55L177.42,399s11.78,4.9,16.2,13.74,14.73-5.4,17.67-11.29,13.75,2,17.18,9.33,6.38,10.3,6.38,10.3,13.26-22.08,17.67-39.76c0,0,7.86,6.39,9.33,10.8s6.38-30.43,1-48.1-15.21-20.12-15.21-20.12-2.46,7.36-31.42,11.29S178.41,335.63,161.72,324.83Z"/><path class="cls-16" d="M161.06,240.56S159.42,220.93,164,216s15.7,11.45,15.7,11.45Z"/><path class="cls-16" d="M196.32,219.29s3.19-19.63,8.84-21.1,11.53,12.51,11.53,12.51Z"/><path class="cls-16" d="M237.06,206.53s7.61-14.48,11.78-14,11.54,14,11.54,14Z"/><path class="cls-16" d="M275.1,209.72s3.44-9.32,11.29-8.59,5.89,14.48,5.89,14.48Z"/><path class="cls-17" d="M185.8,221.05c26.69-14.93,49.37-20.68,78.1-16.09,12.08,1.83,29.05,6.32,37.67,15a2,2,0,0,1-2.69,2.84A25.16,25.16,0,0,0,295.1,220c-9-5.62-21.36-8.31-31.91-9.47a152.63,152.63,0,0,0-19.36-.73c-45.3,2.87-89,46-84.62,42-5.15,4.66-12.21-3.13-7.05-7.8C155.46,241,173.7,227.64,185.8,221.05Z"/><path class="cls-14" d="M174.31,223.71c0-.42-4.82-6.79-7.36-6.46s-2.94,11.86-1.72,11.53,3.44-4.09,5.57-4.33S174.31,225.27,174.31,223.71Z"/><path class="cls-14" d="M212,205.06s-3.19-5.07-5.48-5-6.63,6.79-5.49,8.75,4.83-3.11,7.37-3.11S211.78,206.53,212,205.06Z"/><path class="cls-14" d="M255,200.89s-3.44-8-6.5-7-8.78,7.06-6.32,7.55,3.8-2.46,6.56-2S253.87,202.18,255,200.89Z"/><path class="cls-14" d="M290.32,206.78s-1.06-4.26-4.25-4.34-8.1,2.45-7,3.76,5.24-.16,7.2.66S289.91,208.58,290.32,206.78Z"/><path class="cls-17" d="M249.26,224.28a1.1,1.1,0,1,1-.2,2.19c-24.66-1.6-43.07,15.4-56.26,36.13a2,2,0,0,1-3.32-2.11l0,0C194.48,254.84,214,221.11,249.26,224.28Z"/><path class="cls-18" d="M208.44,223.33c.19-2.11-28.44,9.23-22.64,24.68,2.76,6.19,9.27-5.07,16.35-11.94C208.72,228.2,215.87,224.73,208.44,223.33Z"/><path class="cls-18" d="M225.53,220.77a2.22,2.22,0,1,1-2.21-2A2.1,2.1,0,0,1,225.53,220.77Z"/></g></g></g></g></g></g></svg>