<svg xmlns="http://www.w3.org/2000/svg" viewBox="0 0 158.78 165.97"><defs><style>.cls-1{fill:aqua;}.cls-2{fill:#0ab1bf;}.cls-3{fill:#333f3d;}.cls-4{fill:#fff;}.cls-5{fill:#e1ebdf;}.cls-6{fill:#4e3861;}.cls-7{opacity:0.2;}</style></defs><g id="Layer_2" data-name="Layer 2"><g id="monsters"><g id="layer"><g id="sophia"><g id="face"><path class="cls-1" d="M47.44,64.41c2.92,17.54-5.2,33.5-18.14,35.65S3.51,89.74.59,72.21,5.8,38.71,18.74,36.56,44.53,46.88,47.44,64.41Z"/><path class="cls-1" d="M122.9,53.47c-4.67,26.29-22.41,45.13-39.62,42.07S55.89,68.7,60.56,42.4,83-2.73,100.18.32,127.57,27.17,122.9,53.47Z"/><path class="cls-2" d="M109.41,4.36c7.56,9.94,10.92,26.16,7.84,43.46C112.59,74.12,94.85,93,77.64,89.9a22,22,0,0,1-9.24-4c3.93,5.16,9,8.63,14.88,9.67,17.21,3.06,35-15.78,39.62-42.07C126.65,32.31,120.81,12.78,109.41,4.36Z"/><path class="cls-3" d="M105.7,32.89C105.7,43.46,99.32,52,91.46,52S77.23,43.46,77.23,32.89,83.6,13.75,91.46,13.75,105.7,22.32,105.7,32.89Z"/><path class="cls-3" d="M38.91,57.78c0,8.77-6.45,15.87-14.41,15.87s-14.4-7.1-14.4-15.87,6.45-15.87,14.4-15.87S38.91,49,38.91,57.78Z"/><path class="cls-4" d="M73.27,35.69c-4.5,21.73-3.79,50.94,18,43.39-22,9.24-25-21.24-21.88-44.08a2,2,0,1,1,3.88.66Z"/><path class="cls-4" d="M20.68,86.59C9.22,84.77,4,73.27,3.05,62.48c-.3-3.31,4.9-3.47,4.7-.07C8.07,63.45,5.82,81.84,20.68,86.59Z"/><path class="cls-4" d="M33.61,49.55a5.29,5.29,0,1,1-5.29-5.29A5.29,5.29,0,0,1,33.61,49.55Z"/><path class="cls-4" d="M106.68,17.68a6.63,6.63,0,0,1-13.25,0,6.63,6.63,0,0,1,13.25,0Z"/><path class="cls-5" d="M17.67,143S16,123.37,20.62,118.46s15.7,11.46,15.7,11.46Z"/><path class="cls-5" d="M52.93,121.74s3.19-19.64,8.84-21.11S73.3,113.15,73.3,113.15Z"/><path class="cls-5" d="M93.67,109s7.61-14.48,11.78-14S117,109,117,109Z"/><path class="cls-5" d="M131.71,112.16s3.44-9.32,11.29-8.59,5.89,14.48,5.89,14.48Z"/><path class="cls-6" d="M42.41,123.49c26.69-14.92,49.37-20.68,78.1-16.09,12.08,1.83,29.05,6.32,37.67,15a2,2,0,0,1-2.69,2.84,24.42,24.42,0,0,0-3.78-2.8c-9-5.63-21.36-8.32-31.91-9.47a150.8,150.8,0,0,0-19.36-.74c-45.3,2.88-89,46-84.62,42-5.15,4.66-12.22-3.13-7-7.8C12.07,143.44,30.31,130.08,42.41,123.49Z"/><path class="cls-4" d="M30.92,126.15c0-.41-4.82-6.79-7.36-6.46s-2.94,11.86-1.72,11.54,3.44-4.09,5.56-4.34S30.92,127.71,30.92,126.15Z"/><path class="cls-4" d="M68.56,107.5s-3.19-5.07-5.49-5-6.62,6.79-5.48,8.75,4.83-3.1,7.37-3.1S68.39,109,68.56,107.5Z"/><path class="cls-4" d="M111.65,103.33s-3.44-8-6.5-7-8.78,7.06-6.33,7.55,3.81-2.45,6.57-2S110.48,104.62,111.65,103.33Z"/><path class="cls-4" d="M146.93,109.22s-1.06-4.25-4.25-4.34-8.1,2.46-7,3.77,5.23-.17,7.2.65S146.52,111,146.93,109.22Z"/><path class="cls-7" d="M105.87,126.73a1.11,1.11,0,0,1,1,1.19,1.12,1.12,0,0,1-1.2,1C81,127.31,62.6,144.31,49.41,165a2,2,0,0,1-3.32-2.11l0,0C51.09,157.28,70.56,123.55,105.87,126.73Z"/><path class="cls-7" d="M65.05,125.78c.18-2.12-28.44,9.22-22.64,24.67,2.76,6.19,9.27-5.07,16.35-11.94C65.33,130.65,72.48,127.17,65.05,125.78Z"/><path class="cls-7" d="M82.14,123.21a2.22,2.22,0,1,1-2.21-2A2.1,2.1,0,0,1,82.14,123.21Z"/></g></g></g></g></g></svg>