<svg xmlns="http://www.w3.org/2000/svg" viewBox="0 0 402.95 396.74"><defs><style>.cls-1{isolation:isolate;}.cls-2{fill:#358a4f;}.cls-3{fill:#329e41;}.cls-4{fill:#39b54a;}.cls-5{fill:#5c2825;}.cls-6{fill:#d4145a;}.cls-7{fill:#fff;}.cls-8{fill:#c7c3bf;}.cls-9{fill:#3cbf4e;}.cls-10{fill:aqua;}.cls-11{fill:#0ab1bf;}.cls-12{fill:#3ec450;}.cls-13{fill:#65d073;}.cls-14{fill:#04454a;}.cls-15{fill:#e3f4ff;opacity:0.17;mix-blend-mode:screen;}</style></defs><g class="cls-1"><g id="Layer_2" data-name="Layer 2"><g id="monsters"><g id="layer"><g id="michael"><g id="body"><path class="cls-2" d="M21.35,229.56c0,2-2.12,3.6-4.74,3.6s-4.75-1.62-4.75-3.6S14,226,16.61,226,21.35,227.57,21.35,229.56Z"/><path class="cls-3" d="M83.6,213.6s0-19.79-10.13-24.4-30.37-6.44-24.85-37.74-30.38-26.23-31.76-15.18-12,9.66-16.11,11,10.13,26.7,10.13,29S7.61,189.63,8.58,220c1.59,49.85,66.73,40,66.73,40Z"/><path class="cls-2" d="M41.48,234.46s-20-2.94-19.64,7.2S52.93,244.94,41.48,234.46Z"/><path class="cls-2" d="M41.15,228c0,1.58-2.2,2.87-4.91,2.87s-4.91-1.29-4.91-2.87,2.2-2.86,4.91-2.86S41.15,226.42,41.15,228Z"/><path class="cls-2" d="M45.4,251.73c0,1.94-2,3.51-4.58,3.51s-4.58-1.57-4.58-3.51,2-3.52,4.58-3.52S45.4,249.78,45.4,251.73Z"/><path class="cls-2" d="M53.75,232.5c0,1.45-1.69,2.62-3.76,2.62s-3.77-1.17-3.77-2.62,1.69-2.62,3.77-2.62S53.75,231.06,53.75,232.5Z"/><path class="cls-2" d="M54.73,247.64A3.77,3.77,0,1,1,51,243.79,3.8,3.8,0,0,1,54.73,247.64Z"/><path class="cls-2" d="M68.15,223.34c0,3.25-4.4,5.89-9.82,5.89s-9.82-2.64-9.82-5.89,4.4-5.89,9.82-5.89S68.15,220.09,68.15,223.34Z"/><path class="cls-3" d="M101.14,125.29A49.11,49.11,0,0,0,101.8,115a64.47,64.47,0,0,0-.88-9.41,83.48,83.48,0,0,0-4.85-17A114.76,114.76,0,0,0,88.76,73,65,65,0,0,0,78.59,59.18L96.52,48.5A64.69,64.69,0,0,0,103.83,64,113.74,113.74,0,0,0,114,77.87a83.14,83.14,0,0,0,12.62,12.37,64.77,64.77,0,0,0,7.86,5.26,49.22,49.22,0,0,0,9.4,4.35Z"/><path class="cls-4" d="M159.64,88.85c-2.79,0-46.62-9.74-66.1,28.53S85.89,173.73,65,208.52,41.36,337.93,72,371.33s66.79-6.27,84.19,4.87,32,14.61,39,9.74,10.43-9.05,29.92,0,11.82,5.56,44.52,7.65,65.4,3.48,88.36-11.13,38.27-2.79,38.27-2.79,18.78-10.43-6.26-39-57.75-6.95-77.92-4.17-26.44-31.31-19.49-51.49-6.26-41.74-6.26-41.74,41.75-57.75,3.48-115.5S159.64,88.85,159.64,88.85Z"/><path class="cls-2" d="M65,208.52a78.58,78.58,0,0,0-6.14,14.68,148.52,148.52,0,0,0-4,15.39,213.06,213.06,0,0,0-3.73,31.54C48.76,317.51,60,386.78,105.35,382c20.83-1.88,39.21-16.7,52.84-8l2.48,1.54c26.21,15.67,32.84,7.73,33.22,7.78,1.74-.65,6.65-7.19,17.79-5.05,11.55,2.37,21.89,10,29.75,11.36.22,0,58.51,4.71,79.16,2.67,35.08-2.38,39.76-18.67,60.51-17.55a28.29,28.29,0,0,1,15.09,4.92,27.85,27.85,0,0,0-15.11-4c-23.09-.22-22.52,19.26-76.23,21.06-13,.33-63.13-1.8-64.27-2-9.9-1.44-27-13.87-36.51-10.83-2.59.72-8.06,4.84-7.86,4.71-14.62,9.14-41-10.39-44.8-11.18-10.38-2.23-27.48,8.63-45.55,10.2-50.08,5.08-61.61-66-57.57-117.69a214.62,214.62,0,0,1,5.09-31.68C56,227.91,59.32,217.58,65,208.52Z"/><path class="cls-5" d="M134.24,182.43s-20.87-7.65-32.7,2.09-7.3,47.66,13.92,58.44,68.87,12.28,82.44-15.2,10.44-53-12.52-57.85S134.24,182.43,134.24,182.43Z"/><path class="cls-6" d="M179.3,244.69A93.88,93.88,0,0,0,153.39,232a108.45,108.45,0,0,0-52.19-3.93c3.35,6.34,8.1,11.75,14.26,14.88C130.61,250.66,159.23,253.62,179.3,244.69Z"/><path class="cls-7" d="M160.68,171.3a109.21,109.21,0,0,0-26.44,11.13s-12.59-4.62-23.76-2.11c4.67,10.41,13.41,27.73,21.33,31.33,11.48,5.22,29.22-5.56,29.22-5.56Z"/><path class="cls-8" d="M160.74,177.19l-.06-5.89a109.21,109.21,0,0,0-26.44,11.13s-12.59-4.62-23.76-2.11c.53,1.18,1.12,2.45,1.74,3.78,5.1.11,16.44.58,19.58,2.59,4.08,2.62,11.45,22.58,11.45,22.58s-6.71-19.15-3.93-24.22S157.11,175.9,160.74,177.19Z"/><path class="cls-2" d="M98.09,238.56a45.85,45.85,0,0,0,10.08,12.15c15.76,13.43,35.84,12.57,44.24,13.37C122.18,271,101.62,254.92,98.09,238.56Z"/><path class="cls-3" d="M238.42,242.55s-19.83-11.48-32.88-1.05-46.44,67.84-51.13,76.19,7.3,51.66,26.61,36.53,8.35-24,19.31-35,19.82-3.65,34.43-4.69,30.27-7.83,19.31-33.4S238.42,242.55,238.42,242.55Z"/><path class="cls-2" d="M109,71.57c-1.83-2.45-3.54-4.95-5.14-7.53A64.69,64.69,0,0,1,96.52,48.5L78.59,59.18A65,65,0,0,1,88.76,73C89.91,75,91,77.1,92,79.21A23.8,23.8,0,0,0,109,71.57Z"/><path class="cls-4" d="M182.94,104.31A74.59,74.59,0,0,0,195.5,97a91.74,91.74,0,0,0,10.05-8,102.59,102.59,0,0,0,15.06-17.52,128.68,128.68,0,0,0,11.06-18.7,66.51,66.51,0,0,0,6.41-20.09l29.19,8.67a73.34,73.34,0,0,0-11.07,18.7,116.8,116.8,0,0,0-6.41,20.09,81.67,81.67,0,0,0-2.42,21.27,65.32,65.32,0,0,0,1.3,11.39A50.61,50.61,0,0,0,252.5,125Z"/><path class="cls-2" d="M231.67,52.81c-.38.8-.77,1.6-1.17,2.39a30.16,30.16,0,0,0,22.29,14q1.5-4.62,3.41-9.13a73.34,73.34,0,0,1,11.07-18.7l-29.19-8.67A66.51,66.51,0,0,1,231.67,52.81Z"/><path class="cls-9" d="M65.69,247.39S62.42,333.13,84,359.31s47.12,14.39,49.74,3.27-17.67-3.27-32.07-19.64S65.69,247.39,65.69,247.39Z"/><path class="cls-3" d="M257,113.06s-14.72,3.44-16.2,13.25,23.56,16.69,31.91,9.33S269.72,112.57,257,113.06Z"/><path class="cls-3" d="M286.25,144s-18.32,3.28-14.07,13.75S309.16,153.47,286.25,144Z"/><path class="cls-3" d="M254.51,144.31c-1.26-1.09-20.95-3.93-17.35,5.24S264.32,152.82,254.51,144.31Z"/><path class="cls-3" d="M189.24,93.67c.3,1.48,12.72,16.9,15.07,9.45S186.84,82.17,189.24,93.67Z"/><path class="cls-3" d="M284,170.82s-15.71-2.29-16.69,3.6,11.13,18.65,19,13.74S291.81,170.49,284,170.82Z"/><path class="cls-3" d="M284.29,258.52s-10.8-9.49-17.67-2.62-5.57,17,6.54,17.67S289.52,262.44,284.29,258.52Z"/><path class="cls-3" d="M284.67,283.22a5,5,0,0,0-4.74-2.33c-5.31.38-17.38,2-14.3,8.39C269.17,296.64,288.87,290.48,284.67,283.22Z"/><path class="cls-3" d="M273.13,306.35a5.31,5.31,0,0,0-5.28-1.5c-5.77,1.39-19.39,5.48-9.42,11.26C269.32,322.41,277.94,311.92,273.13,306.35Z"/><path class="cls-3" d="M284.64,297.57a5,5,0,0,0-4.84-1.87c-2.55.38-5.71,1.49-2.71,4.7C281,304.61,287.59,301.6,284.64,297.57Z"/><path class="cls-3" d="M182.68,92.28s-9.82,0-5.24,4.91S190.21,97.19,182.68,92.28Z"/><path class="cls-3" d="M287.23,331.36a5.41,5.41,0,0,0-4.73-3.4c-5.31-.4-17.45-.47-17.19,7.46C265.6,344.5,290.32,339.94,287.23,331.36Z"/><path class="cls-3" d="M293.59,347.55a5.27,5.27,0,0,0-6.51-3.86c-4.22,1.06-10.22,3.39-8,7.76C281.78,356.91,295,354.41,293.59,347.55Z"/><path class="cls-3" d="M331.82,335.91c-3.52-.27-13.26,1-10.8,9.08S342.62,336.74,331.82,335.91Z"/><path class="cls-3" d="M356.94,331.28a3.28,3.28,0,0,0-2.63,4.72c2.19,4.54,7.06,13,10.4,6.54S361.67,331,356.94,331.28Z"/><path class="cls-3" d="M150.94,93.92c-.24,3.66,7.11,17.67,11.53,9.08S151.36,87.45,150.94,93.92Z"/><path class="cls-3" d="M381.33,342.43a2.58,2.58,0,0,0-2.68,2.63c.07,1.45.75,2.6,3.48.42C385.15,343.06,383.25,342.51,381.33,342.43Z"/><path class="cls-3" d="M134,93.67s-1.72,6.87,3.19,3S134,93.67,134,93.67Z"/><ellipse class="cls-10" cx="87.54" cy="51.71" rx="23.74" ry="23.57"/><path class="cls-11" d="M87.54,68.91A23.7,23.7,0,0,1,64,48.52a24.07,24.07,0,0,0-.21,3.19,23.74,23.74,0,0,0,47.48,0,22.49,22.49,0,0,0-.22-3.19A23.69,23.69,0,0,1,87.54,68.91Z"/><path class="cls-10" d="M286.25,30.16A30.16,30.16,0,1,1,256.09,0,30.16,30.16,0,0,1,286.25,30.16Z"/><path class="cls-11" d="M274.13,6a30.16,30.16,0,0,1-42.21,42.2A30.16,30.16,0,1,0,274.13,6Z"/><path class="cls-12" d="M235.47,236s-19.83-11.48-32.87-1-48.23,62.83-51.14,76.18c-2,9.36,7.31,51.66,26.61,36.53s8.35-24,19.31-35,19.83-3.65,34.44-4.7,32.83-8.54,21.87-34.11S235.47,236,235.47,236Z"/><path class="cls-13" d="M194.62,254.26S165.17,286,161.25,300.4s-6.55,31.42,1.63,29.45,2.29-20,4.91-28.14,39.6-39.27,42.87-45.48S206.4,242.81,194.62,254.26Z"/><path class="cls-4" d="M253.69,273.9c-11-25.57-18.22-37.9-18.22-37.9,2.68,11.06,2.35,23.17-5.5,32.66s-37.31,19.63-46.14,35c-7,12.24-15.51,33.22-11.09,46.85a15.3,15.3,0,0,0,5.33-2.86c19.31-15.13,8.35-24,19.31-35s19.83-3.65,34.44-4.7S264.65,299.47,253.69,273.9Z"/><path class="cls-13" d="M230.7,64.22S207.39,90,206.9,92s7.11,11.29,11.28,11,15.47-36.33,15.47-36.33Z"/><path class="cls-14" d="M260.89,23.23A13.26,13.26,0,1,1,247.64,10,13.26,13.26,0,0,1,260.89,23.23Z"/><path class="cls-14" d="M96.94,43.36A13.25,13.25,0,1,1,83.69,30.11,13.25,13.25,0,0,1,96.94,43.36Z"/><path class="cls-15" d="M254.18,4.91s-8.51-2.29-17.67,9.16-6.22,24.22.33,30.43,9.49-12.43,17.67-18.32,20.29-6.87,16.36-14.4S254.18,4.91,254.18,4.91Z"/><path class="cls-15" d="M87.54,28.14a23.75,23.75,0,0,0-22.49,16,26.55,26.55,0,0,0,14.06,1C92.85,42.54,91.87,53,105.94,55.3a7.45,7.45,0,0,0,5.17-.79A23.55,23.55,0,0,0,87.54,28.14Z"/><path class="cls-7" d="M254.51,12.43a5.42,5.42,0,0,1-10.8,0,5.43,5.43,0,0,1,10.8,0Z"/><path class="cls-7" d="M94.16,37.31c0,3.07-2.78,5.56-6.22,5.56s-6.21-2.49-6.21-5.56,2.78-5.57,6.21-5.57S94.16,34.23,94.16,37.31Z"/></g></g></g></g></g></g></svg>