<svg xmlns="http://www.w3.org/2000/svg" viewBox="0 0 222.45 265.73"><defs><style>.cls-1{isolation:isolate;}.cls-2{fill:#5c2825;}.cls-3{fill:#d4145a;}.cls-4{fill:#fff;}.cls-5{fill:#c7c3bf;}.cls-6{opacity:0.2;}.cls-7{fill:aqua;}.cls-8{fill:#0ab1bf;}.cls-9{fill:#04454a;}.cls-10{fill:#e3f4ff;opacity:0.17;mix-blend-mode:screen;}</style></defs><g class="cls-1"><g id="Layer_2" data-name="Layer 2"><g id="monsters"><g id="layer"><g id="michael"><g id="face"><path class="cls-2" d="M70.45,182.43s-20.88-7.65-32.7,2.09S30.44,232.18,51.66,243s68.87,12.28,82.44-15.2,10.44-53-12.52-57.85S70.45,182.43,70.45,182.43Z"/><path class="cls-3" d="M115.5,244.69A93.73,93.73,0,0,0,89.59,232a108.41,108.41,0,0,0-52.18-3.93c3.35,6.34,8.1,11.75,14.25,14.88C66.81,250.66,95.43,253.62,115.5,244.69Z"/><path class="cls-4" d="M96.89,171.3a109,109,0,0,0-26.44,11.13s-12.6-4.62-23.76-2.11c4.66,10.41,13.4,27.73,21.32,31.33,11.48,5.22,29.22-5.56,29.22-5.56Z"/><path class="cls-5" d="M96.94,177.19l0-5.89a109,109,0,0,0-26.44,11.13s-12.6-4.62-23.76-2.11c.53,1.18,1.11,2.45,1.74,3.78,5.1.11,16.43.58,19.57,2.59,4.09,2.62,11.45,22.58,11.45,22.58s-6.71-19.15-3.93-24.22S93.32,175.9,96.94,177.19Z"/><path class="cls-6" d="M34.29,238.56a45.85,45.85,0,0,0,10.08,12.15c15.76,13.43,35.85,12.57,44.24,13.37C58.39,271,37.82,254.92,34.29,238.56Z"/><ellipse class="cls-7" cx="23.74" cy="51.71" rx="23.74" ry="23.57"/><path class="cls-8" d="M23.74,68.91A23.69,23.69,0,0,1,.22,48.52,24.07,24.07,0,0,0,0,51.71a23.75,23.75,0,0,0,47.49,0,24.07,24.07,0,0,0-.22-3.19A23.7,23.7,0,0,1,23.74,68.91Z"/><path class="cls-7" d="M222.45,30.16A30.16,30.16,0,1,1,192.29,0,30.16,30.16,0,0,1,222.45,30.16Z"/><path class="cls-8" d="M210.33,6a30.16,30.16,0,0,1-42.21,42.2A30.16,30.16,0,1,0,210.33,6Z"/><path class="cls-9" d="M197.09,23.23A13.25,13.25,0,1,1,183.84,10,13.26,13.26,0,0,1,197.09,23.23Z"/><path class="cls-9" d="M33.15,43.36A13.26,13.26,0,1,1,19.89,30.11,13.26,13.26,0,0,1,33.15,43.36Z"/><path class="cls-10" d="M190.38,4.91s-8.5-2.29-17.67,9.16S166.5,38.29,173,44.5s9.49-12.43,17.67-18.32,20.29-6.87,16.36-14.4S190.38,4.91,190.38,4.91Z"/><path class="cls-10" d="M23.74,28.14a23.75,23.75,0,0,0-22.49,16,26.55,26.55,0,0,0,14.06,1C29.06,42.54,28.08,53,42.15,55.3a7.46,7.46,0,0,0,5.17-.79A23.55,23.55,0,0,0,23.74,28.14Z"/><path class="cls-4" d="M190.71,12.43a5.42,5.42,0,0,1-10.8,0,5.43,5.43,0,0,1,10.8,0Z"/><path class="cls-4" d="M30.37,37.31c0,3.07-2.79,5.56-6.22,5.56s-6.22-2.49-6.22-5.56,2.78-5.57,6.22-5.57S30.37,34.23,30.37,37.31Z"/></g></g></g></g></g></g></svg>