<svg xmlns="http://www.w3.org/2000/svg" viewBox="0 0 757.12 168.6"><defs><style>.cls-1{fill:#2c1300;}</style></defs><g id="Layer_2" data-name="Layer 2"><g id="monsters"><g id="layer"><g id="michael"><path class="cls-1" d="M141.06,108.9q-7.2,4.8-21.6,25.2-17.4,24.6-29.4,24.6-9.9,0-22.2-19.8-16.5-26.7-17.4-27.6-6.9,17.1-7.5,18.3-6,11.7-12.9,11.7t-18.9-11.55Q-.84,118.2.06,111.6q2.4-17.4,22.5-57.9T55.26.6a12.26,12.26,0,0,1,3.9-.6q14.4,0,33,31.8,2.1,3.6,22.8,44.7,3.3-3.3,19.5-42Q148.56.9,157.86.9q10.8,5.7,40.2,36.9,30.9,32.7,30,40.8-1.2,9.9-12.3,24.6-5.1,6.3-17.7,22.5-15,19.5-21.6,19.5-7.5,0-19.5-15Q155.76,128.7,141.06,108.9Z"/><path class="cls-1" d="M227.76,64.2Q226,51.6,226,50.4q.9-16.2,45.9-16.2,12,0,16.2,7.2,3.3,5.7,3.3,18.3,0,7.8-2.7,11.1t-10.8,3.3Q245.76,74.4,227.76,64.2Zm0,24.9q.9-8.4,4.8-11.4.9-.9,7.65-2.4a53.34,53.34,0,0,1,8.85-1.5q7.2,0,19.8,3.6,14.1,3.9,17.4,8.25t3.3,19.35a163.91,163.91,0,0,1-4.8,39.9q-5.4,21.6-12.6,21.3a67.68,67.68,0,0,1-26.7-6.3q-17.1-7.5-16.5-19.2.3-5.7,6.6-19.2t6.3-19.8q0-3-6.45-5.7T227.76,89.1Z"/><path class="cls-1" d="M333.06,97.2q.3,6.6,9.3,6.6h10.8q18.6,0,18.6,22.33,0,17.26-26.7,17.27-17.7,0-30.6-6.3-8.1-3.9-13.65-14.4T295,102.6a102.28,102.28,0,0,0,0-11.1q4.5-25.2,10.8-37.5l.9-.6q4.5-9.6,20.1-15.9,13.8-5.7,26.1-5.7,30.3,0,30.3,27.6,0,15.9-3.6,21.6-5.7,9-22.8,10.5Q337.56,93,333.06,97.2Z"/><path class="cls-1" d="M428.15,105.9l-1.2,1.2q-1.79,28.8-2.4,31.5-3.9,18.6-16.79,18.6a27.54,27.54,0,0,1-7.5-1.2q-2.11-5.1-8.71-66.6l-7.8-72.9q-.88-9,11.4-9,10.2,0,28.21,6.3,15.58,5.4,16.19,7.2a76.91,76.91,0,0,1,.9,12q0,9.9-5.69,38.1l.89.6q56.7-3,56.71,43.2,0,10.2-6,30.3-6.92,23.4-14.41,23.4-4.8,0-20.09-8.85T436,147q-.6-5.4,1.2-14.7,2.1-10.5,2.11-14.4Q439.26,107.7,428.15,105.9Z"/><path class="cls-1" d="M533.45,97.5l-.6-6.3q-2.7-1.5-19.5-5.4Q499,82.5,496.85,78q-5.7-12-5.7-21,0-4.2,2.1-17.1,1.5-9.3,27.3-9.3a152.07,152.07,0,0,1,33.9,3.9q21,4.8,30.6,13.2,8.4,7.5,8.4,26.4,0,18.3-11.1,51.3-12.9,38.7-27,38.7a98.1,98.1,0,0,1-36.9-7.5q-23.1-9.3-23.1-23.1,0-7.8,8.4-16.8Q509.75,110.4,533.45,97.5Zm-1.2,38.1q9.9,2.1,10.8,2.1,7.5,0,7.5-9,0-1.8-3.45-3.45a13.84,13.84,0,0,0-5.55-1.65q-6,0-7.8,6.9Q532.85,133.5,532.25,135.6Z"/><path class="cls-1" d="M655,117.3q7.5,11.7,7.5,13.2,0,3.9-9,10.8t-13.2,6.9q-8.4,0-22.65-9T601,122.4a68.78,68.78,0,0,1-3.3-20.7q0-27.9,21-46.5Q638.45,37.5,667,36q12.3-.6,21.9,12.6,9,12,9,24.6Q697.85,101.1,655,117.3Zm5.4-31.8q0-6.9-4.5-6.9-16.8,0-19.5,5.1-.6,1.2,0,8.7Q638.75,92.7,660.35,85.5Z"/><path class="cls-1" d="M757,33.3q1.5,12.6-9.9,64.35t-18,62.25q-2.7,4.2-9.3,4.2-6,0-9-9.3-.6-.6-3-14.1-9.6-51-9.6-93.3,0-15,1.2-18.3,2.7-7.8,15.9-12.3A61.79,61.79,0,0,1,736,13.2q18.6,0,20.1,12.3Z"/></g></g></g></g></svg>