<svg xmlns="http://www.w3.org/2000/svg" viewBox="0 0 262.1 248.38"><defs><style>.cls-1{isolation:isolate;}.cls-2{fill:#c4e8ff;}.cls-3{fill:#a14073;}.cls-4{fill:#053f4d;}.cls-5{fill:#fff;}.cls-6{fill:#c7c3bf;}.cls-7{fill:#d4005a;}.cls-8{fill:#d62767;}.cls-9{fill:#0a8cab;}.cls-10,.cls-15{opacity:0.2;}.cls-11{fill:#e3f4ff;opacity:0.17;mix-blend-mode:screen;}.cls-12{fill:#ffaed8;}.cls-13{fill:#ffd4e9;}.cls-14{fill:#0db1d6;}</style></defs><g class="cls-1"><g id="Layer_2" data-name="Layer 2"><g id="monsters"><g id="layer"><g id="edward"><g id="face"><path class="cls-2" d="M113.53,100.63c-5.6,14.6-19.3,22.91-30.6,18.58S67,99.52,72.61,84.93,91.91,62,103.21,66.35,119.13,86,113.53,100.63Z"/><path class="cls-3" d="M85.63,116.51c-11.3-4.34-15.92-19.69-10.32-34.28a35.31,35.31,0,0,1,6.44-10.72,34.3,34.3,0,0,0-9.14,13.42c-5.6,14.59-1,29.94,10.32,34.28,8.11,3.11,17.45-.29,24.15-7.86C100.71,117,92.7,119.22,85.63,116.51Z"/><path class="cls-2" d="M154.07,100.63c5.6,14.6,19.31,22.91,30.61,18.58S200.6,99.52,195,84.93,175.69,62,164.39,66.35,148.47,86,154.07,100.63Z"/><path class="cls-3" d="M195,84.93a34.18,34.18,0,0,0-9.27-13.53A35.1,35.1,0,0,1,192.05,82c5.6,14.6,1,30-10.32,34.28-7,2.7-15,.51-21.33-5,6.71,7.66,16.12,11.12,24.28,8C196,114.87,200.6,99.52,195,84.93Z"/><ellipse class="cls-4" cx="165.29" cy="79.07" rx="9.53" ry="9.97"/><path class="cls-4" d="M93.5,79.15a9.54,9.54,0,1,0,9.53-10A9.76,9.76,0,0,0,93.5,79.15Z"/><path class="cls-3" d="M63.59,132.83c-2.42,2.25-17.22,19.3-1.57,49.57s71,56.36,98.1,52.7,72-40.7,72.53-76.18S216,116.65,192.47,132.83s-51.13,25.57-75.66,11.48S71.41,125.52,63.59,132.83Z"/><path class="cls-5" d="M167.91,146.11c-17,6.54-34.74,7.6-51.1-1.8-.21-.13-.43-.25-.65-.37.19,12,4.74,27.69,10.64,28.46,11.8,1.54,25.85,2.7,35.08-.38C166.48,170.48,167.77,158.13,167.91,146.11Z"/><path class="cls-6" d="M116.81,144.31c-.21-.13-.43-.25-.65-.37,0,.9,0,1.82.12,2.76.34.35.7.7,1.08,1,3.09,2.77,14.56,6.33,19.85,7.64,1.54.54,2,1.87,2.11,3.69A48.94,48.94,0,0,0,141.45,170s1.11-9.48,2.2-14.39c7.34-.9,19.7-4,24.22-7.28,0-.73,0-1.45,0-2.17C150.93,152.65,133.17,153.71,116.81,144.31Z"/><path class="cls-7" d="M186,170.14C160.9,167.79,152,182.4,152,182.4s-29.22-11.74-49-5.22c-11.32,3.73-22.14,13.24-29.33,20.72,22.68,23,64.13,40.21,86.47,37.2,20.09-2.7,49.89-23.71,64.24-48.83C214.79,179.63,200.41,171.49,186,170.14Z"/><path class="cls-8" d="M100.54,198.41s20.62-14.23,38.29-5.89,27,17.18,23.56,28.47S107.42,227.87,100.54,198.41Z"/><path class="cls-8" d="M180.31,178.29s-11.54,2.45-15.71,9.08,4.66,29.45,15.22,27.49,29.2-17.43,24.29-27S182.76,178.78,180.31,178.29Z"/><path class="cls-9" d="M120.43,31.57S92.13,69.08,81.66,71.81s-6.19-6.36-6.19-6.36-15.53,7.76-22,.27.1-19.48,10.34-18.35S119,36.08,120.43,31.57Z"/><path class="cls-9" d="M156.71,27.26S181.3,67.3,191.45,71s6.77-5.74,6.77-5.74,14.72,9.21,21.91,2.38,1.76-19.4-8.54-19.26S157.69,31.88,156.71,27.26Z"/><path class="cls-10" d="M12,157.42c-2.17-3.85-3.08-9.21-3.54-13.59-1.51-17,9.91-37.68,18-54.75-3,.54-14.05,8.21-22.86,22a76.66,76.66,0,0,1,.77-10.91A69.69,69.69,0,0,1,8.65,83.5a46.65,46.65,0,0,1,9-14.56,29.63,29.63,0,0,1,14.83-8.62,28.68,28.68,0,0,0-15.85,7.57A45.08,45.08,0,0,0,6.3,82.48,70.08,70.08,0,0,0,1.09,99.63C-1,112.1.56,119.74.69,123.94c1.75-3,5-10.86,13-20.16-6,14.27-9.78,26.58-8,40.38,1.66,12,5.23,15.05,7,17.23,1.75-4.71,6.38-18.93,12.68-21.88C19.7,141.45,14.37,152,12,157.42Z"/><path class="cls-10" d="M250.2,157.42a24.81,24.81,0,0,0,2.19-5.68c5.47-21.12-5.12-43.58-13.43-62.05,3.8.67,6,4.9,8.35,7.19,3.75,3.26,8.64,10,11.32,14.17.1-20.8-8.54-46-28.91-50.73a28.71,28.71,0,0,1,15.85,7.57c21.38,19.29,15.88,55.32,15.93,56.05-1.65-2.8-4.81-10.6-13-20.16,18.63,44,1.15,57.14,1.09,57.61-1.76-4.72-6.37-18.93-12.68-21.88C238.86,140.19,247.83,152,250.2,157.42Z"/><path class="cls-11" d="M100.05,72S85.45,74.6,81.77,83.19s-6,18,2,22.58,14.11-11.66,19.76-17.31S107.17,70.55,100.05,72Z"/><path class="cls-5" d="M99.44,84.6a3.32,3.32,0,1,1-3.31-3.5A3.4,3.4,0,0,1,99.44,84.6Z"/><path class="cls-5" d="M176.67,84.6a3.32,3.32,0,1,1-3.32-3.5A3.41,3.41,0,0,1,176.67,84.6Z"/><path class="cls-11" d="M162.15,73.49c-2.79,2.12-4.67,6.63,2.7,13.75s5.89,6.87,11.28,16.44,16.69.74,14.49-12S173.76,64.66,162.15,73.49Z"/><path class="cls-12" d="M63.59,132.83c-15,16.53-8.89,51,25.76,75.54,16.85,11.92,48.6,25.73,70,23.86C177.66,230.62,197.43,215,210,202c16.12-17.13,25.11-35.91,20.75-59.75a33.55,33.55,0,0,0-2.86-9.08c4.39,4.75,6.79,12,8.21,18.25,9.75,41.47-33.6,86.54-69.25,95.58-24.35,6.18-60.39-8.85-81.23-24.61-22.05-16.66-29.36-30.4-34-46.52C46.26,157.07,53.74,139,63.59,132.83Z"/><path class="cls-13" d="M190,226.23S173.35,233.1,168,236.37s2.29,3.6,9.17,1.48S196.59,228.36,190,226.23Z"/><path class="cls-13" d="M138.47,236s-19.74-8.35-26.58-6.52S136,242.49,138.47,236Z"/><path class="cls-14" d="M83.69,49c-.49.16-21.6-2.62-24.87,5.24s7.69,8.67,7.69,8.67a5.42,5.42,0,0,1-1.64-7.86C68,50,83.69,49,83.69,49Z"/><path class="cls-14" d="M212.7,53.61C204.11,50.18,185,46.49,185,46.49s21.48,5.9,27.37,11.54-.25,7.61-.25,7.61C218.47,64.66,221.29,57.05,212.7,53.61Z"/><g class="cls-15"><path d="M41.94,22l-1.82,3.08,3.64-.26c5.42-.4,16.68-1.11,21.93.38l-8.06,4.36c4.52,1.22,9.19,2.75,16.16,2.69a62.71,62.71,0,0,1-11.31-3l8.63-3.73c-1.56-.42-1-5.45-23.81-4.7C62.58,0,80.7,4.5,104,15.08c-2.44-1.55-4.83-3.24-7.39-4.65C74.45-1.78,54.83.26,41.94,22Z"/><path d="M200.1,0c-9.43-.28-21.18,6.38-27.65,13.35,6.9-5.21,18.82-11,27.45-10.24,6.63.77,13.14,3.82,19,7.27-7.66-.17-9.5,3-11.46,4.46,2.45,2.27,4.64,4.3,6.45,5.94-6.53,5.53-18.38,3-26.22-.07,9.26,5.48,22.7,8.58,29.69,1l.91-1c-.91-.93-1.7-1.79-5.5-5.58,7.56-3.49,21.57,3.49,25.74,4.38C235.72,17.87,217.56,1,200.1,0Z"/></g></g></g></g></g></g></g></svg>