<svg xmlns="http://www.w3.org/2000/svg" viewBox="0 0 2569 2569"><defs><style>.cls-1{opacity:0.03;}</style></defs><g id="Layer_2" data-name="Layer 2"><g id="monsters"><g id="layer"><g id="edward"><g id="light"><path id="light-2" data-name="light" class="cls-1" d="M1284.5,1284.5Q1623.67,352.67,0,0H428.17Q1853.28,472.2,1284.5,1284.5ZM1284.5,0H856.33Q2044.14,647.09,1284.5,1284.5,2183.23,865.42,1284.5,0Zm856.33,0H1712.67q548.4,1112.31-428.17,1284.5Q2272.36,1370.93,2140.83,0ZM2569,428.17V0Q2216.34,1623.66,1284.5,1284.5,2096.8,1853.29,2569,428.17Zm0,856.33V856.33Q1921.92,2044.14,1284.5,1284.5,1703.59,2183.23,2569,1284.5Zm0,856.33V1712.67q-1112.31,548.4-1284.5-428.17Q1198.07,2272.36,2569,2140.83ZM2140.83,2569H2569Q945.34,2216.34,1284.5,1284.5,715.71,2096.8,2140.83,2569Zm-856.33,0h428.17Q524.86,1921.9,1284.5,1284.5,385.78,1703.59,1284.5,2569Zm-856.33,0H856.33Q307.93,1456.69,1284.5,1284.5,296.65,1198.07,428.17,2569ZM0,2140.83V2569Q352.67,945.34,1284.5,1284.5,472.21,715.71,0,2140.83ZM0,1284.5v428.17Q647.09,524.86,1284.5,1284.5,865.42,385.78,0,1284.5ZM0,428.17V856.33q1112.31-548.4,1284.5,428.17Q1370.93,296.65,0,428.17Z"/></g></g></g></g></g></svg>