<svg xmlns="http://www.w3.org/2000/svg" viewBox="0 0 431.96 491.95"><g data-name="Layer 2"><path class="prefix__cls-2" d="M14.3 390.91s-9 27.5-1.61 37.19 12.35 3.34 12.35-1S10 403.26 14.3 390.91zM22.27 405.74s4.46 23.67 15.43 28.13 15.78-9.61 7.89-11.32-18.18-13.72-19.2-18.87-4.12 2.06-4.12 2.06zM41.41 402.05s9 25.38 21 21.37 1.34-11-6-13.69a86.92 86.92 0 01-15-7.68z"/><path class="prefix__cls-2" d="M81 221.18S2.25 301 .06 365.56s56 50.15 63 34.69c6.86-15.09.26-53.85-4.11-76.82s26.41-64 26.41-64z"/><path class="prefix__cls-3" d="M56.1 260.23s-8.62 2.7-8.36 6.82 4.5 1.16 11.44.9 3.35-8.49-3.08-7.72zM45.94 275.24s-6.18 9.95-.35 11.15 15.27-6.86 14.41-10.64-10.81-3.94-14.06-.51zM33.59 287.41s-7.38 4.46-3.78 8.24 11.84-11.32 3.78-8.24zM58.45 250.89s-5.83 3.94-1.2 6.34 9.26 2.92 8.58-.17-3.26-8.74-7.38-6.17z"/><path class="prefix__cls-4" d="M28.1 311.42s-23 37.73-16.12 60 17.49 27.44 26.41 25.39-5.49-18.16-3.39-40.46 8.53-49.35-6.9-44.93z"/><path class="prefix__cls-3" d="M38.56 276.1s-3.43 5.14-1.89 5.31 4.12-1 5.84-3.77-2.06-3.09-3.95-1.54z"/><path class="prefix__cls-2" d="M419.76 46.87s12.18-26.23 6.05-36.72-11.87-4.8-12.39-.49 12.13 25.47 6.34 37.21zM413.62 31.19S412 7.16 401.67 1.42s-16.82 7.64-9.19 10.29 16.4 15.8 16.81 21 4.33-1.52 4.33-1.52zM394.18 32.56s-5.91-26.27-18.33-23.74-2.64 10.78 4.33 14.32a87.15 87.15 0 0114 9.42z"/><path class="prefix__cls-2" d="M333.19 207.39S421 137.55 430.85 73.74s-49.58-56.5-58.41-42c-8.62 14.16-6.71 53.43-5.12 76.76s-33.89 60.35-33.89 60.35z"/><path class="prefix__cls-3" d="M362.6 171.6s8.88-1.65 9.12-5.77-4.33-1.69-11.26-2.27-4.34 8.03 2.14 8.04zM374.49 157.92s7.32-9.14 1.67-11-16 5-15.57 8.83 10.25 5.18 13.9 2.17zM388.2 147.31s7.86-3.55 4.74-7.72-13.11 9.82-4.74 7.72zM359.14 180.59s6.26-3.21 1.95-6.15-8.84-4-8.53-.86 2.18 9.07 6.58 7.01zM381.91 158s4-4.7 2.51-5-4.21.53-6.24 3 1.67 3.25 3.73 2z"/><path class="prefix__cls-5" d="M166.26 423.08s30.63 51.41 22.42 54.14-26.25-6.56-38.83-3.83-18.59 10.94-11.48 14.77 52-2.19 59.06-2.74 16.41 2.19 16.41-3.83-12.58-14.21-16.41-24.59-1.63-31.72-1.63-31.72z"/><path class="prefix__cls-2" d="M294.29 416s-2.93 59.77 5.6 58.34 20.1-18.11 32.49-21.6 21.55.94 17.07 7.65-46.91 22.41-53.45 25.27-13.47 9.63-16.29 4.31 4.44-18.45 2.94-29.43-13.43-28.78-13.43-28.78z"/><path class="prefix__cls-6" d="M204.61 53.84s-52.51-37.19-94.07 19.69S77.72 150.1 58 156.66s12.69 22.89 12.69 22.89-23.59 48.57-6.09 72.64 8 22.6 3.64 46.67 22.5 70.56 13 87.33S66.51 402 66.51 402s28.71 12.83 48.4 6.27l-9.48 21.15s43.75-3.65 52.51-12.4 10.21 24.79 16.77 27 36.46-27.71 48.13-16.77 23.33 22.6 25.52 14.58 17.5-16 33.54-8 16.78-8.75 29.9-10.21c0 0 9.48-9.48 18.23-2.19s35 10.21 51.78-17.5c0 0-11.67.73-20.42-21.87s0-46.67 2.92-70.74-10.94-27-10.94-39.38c0 0 11.66 6.93 23.33 0 0 0-6.2-4.74-10.57-27.34s-22.24-71.83-18.6-117-45.94-79.6-64.9-72.3-28.44-17.5-48.13-13.13-29.89 11.67-29.89 11.67z"/><path class="prefix__cls-3" d="M381.81 403.86s-11.67.73-20.42-21.87 0-46.67 2.92-70.74-10.94-27-10.94-39.38c0 0 11.66 6.93 23.33 0 0 0-6.2-4.74-10.57-27.34s-22.24-71.83-18.6-117S301.59 48 282.63 55.3s-28.44-17.5-48.13-13.13-29.89 11.67-29.89 11.67 43.68 3.44 72.49 24.7 45.28 131.7 18.52 155.71-10.29 51.45 16.47 68.6c26.3 16.86-36.24 85.43 11.17 115.77a11.08 11.08 0 016.77 2.74c8.75 7.3 34.97 10.21 51.78-17.5z"/><path class="prefix__cls-7" d="M362.16 376.77c-5.83-19.17.52-41.28 3.08-61.91 3.46-28.05-10.23-30.2-11.25-42 7.05 3.27 15.67 3.46 22.71-1-12.11 6.81-23.67-.95-23.88-1a17 17 0 002.34 10c1.46 2.72 3.19 5.2 4.56 7.82 12.23 22.31-11.34 55.68-2.16 89.4 3 10.48 9.46 23.62 19.59 27.63-14.82 20.61-36.21 19.74-44.84 13.11-14.13-10.86-31.61 6-36 10-9 8.56-11.18-1.39-26.37-2.14-20.73-1.14-26.45 15.38-25.2 13.59-6.83-2.72-18-16.62-23.53-18.68-14.46-5-36.47 15.53-45.11 18.24-3.17-4.64-5.12-20-9.93-25.63-3.22-3.61-7.38-3.62-10.94-.21-6.23 6.06-34.77 9.77-43.37 10.75L122 401.8c-6.47 1.82-10.27 4.41-19.87 4.48-9.23.11-19.54-2.13-28.29-4.84 4.29-3.61 11.6-12.77 12.61-20.51 2.81-24.28-21.23-59.42-14.42-87.6 4.16-18.21 11.4-19-6.41-43-16.43-23.32 6.14-71.82 5.87-71-1.66-1-18.57-8.81-19.8-16.26.72 6.25 12.68 13.71 18.21 16.8-9.83 20.43-20 53.49-7.49 72.65 15.69 22.93 9.33 21.54 4.69 39.62-5 18.8.3 31.31 8.21 59.88 2.28 8.23 6.43 23.31 3.6 31-1.51 4.35-15.86 22.37-15.86 22.37 13.06 5.31 31.19 9.88 45.16 8.29-1.3 2.87-5.87 13-9.21 20.36l6.74-.62c29.14.37 52.63-12.68 54-12.57 4.84.36 9.3 31.29 9.3 31.29s24.1-14.06 37.48-20.41c3.5-1.65 9.65-4.13 12.88-2 3.77 2.44 27.23 29.86 32.48 14 2.9-8.76 15.14-11 24.31-8.15 4.57 1.53 7 3.54 11.72 4 9.47 1 13.66-6.7 18.73-10.23C309.89 427 321 418.37 328 424.1c13.44 10.45 42 4.69 57.7-21.53 0 0-16.05-1.57-23.54-25.8zM161.24 419.5z"/><path class="prefix__cls-8" d="M186.84 188.14c-6.84 17.74-23.46 27.86-37.19 22.58s-19.35-23.92-12.54-41.67 23.46-27.85 37.19-22.57 19.35 23.92 12.54 41.66z"/><path class="prefix__cls-9" d="M142.51 174.46c6.8-17.74 23.46-27.85 37.19-22.58a20.64 20.64 0 014.55 2.42 21.82 21.82 0 00-9.95-7.82c-13.73-5.28-30.39 4.83-37.19 22.57-6 15.64-2.36 32 8 39.25-6.03-8.41-7.4-21.3-2.6-33.84z"/><path class="prefix__cls-10" d="M185.58 178.63c0 8.32-6.45 15.07-14.4 15.07s-14.41-6.75-14.41-15.07 6.45-15.06 14.41-15.06 14.4 6.74 14.4 15.06z"/><path class="prefix__cls-11" d="M165.12 180.23l-17.49 5.15s-.69 8.23 4.11 12.35l14.75-13z"/><path class="prefix__cls-12" d="M179.18 178.63a8 8 0 11-8-8.37 8.19 8.19 0 018 8.37z"/><path class="prefix__cls-8" d="M220.45 183c6.81 17.74 23.46 27.85 37.2 22.58s19.35-23.93 12.54-41.67-23.47-27.85-37.2-22.58-19.35 23.93-12.54 41.67z"/><path class="prefix__cls-9" d="M264.79 169.31c-6.81-17.74-23.47-27.85-37.2-22.58a21.11 21.11 0 00-4.55 2.43 21.83 21.83 0 0110-7.83c13.73-5.27 30.39 4.84 37.2 22.58 6 15.63 2.35 32-8 39.24 5.97-8.4 7.34-21.35 2.55-33.84z"/><path class="prefix__cls-10" d="M221.71 173.49c0 8.32 6.45 15.06 14.4 15.06s14.41-6.74 14.41-15.06-6.45-15.07-14.41-15.07-14.4 6.75-14.4 15.07z"/><path class="prefix__cls-11" d="M242.17 175.09l17.49 5.14s.69 8.24-4.11 12.35l-14.75-13z"/><ellipse class="prefix__cls-12" cx="236.11" cy="173.49" rx="8.01" ry="8.38"/><path class="prefix__cls-13" d="M191.07 243.26c-.18 7.31.35 16.51 4.11 17 6.29.82 15.32 3.28 20.24 1.64 3.11-1 3.38-11.36 3.16-18.81a60 60 0 01-27.51.17z"/><path class="prefix__cls-14" d="M205.76 65.85c-.4-1.17-4.62-2.16-6.06-2.51-50.35-12.34-72 .51-88 26.45-20 31.39-7.6 47.4-7.71 64.14 0 9-3.41 18.2-8.42 25.49a49.81 49.81 0 01-4.17 5.32 45.52 45.52 0 01-5 4.58c10.71-9.34 16.46-23.85 16.24-35.39a68.58 68.58 0 00-2-13.17C96.83 123 97.11 109 109.92 88.7a75.86 75.86 0 0118.14-20.2A52 52 0 01153 57.88c18.48-2.52 51.84 4.8 52.76 7.97z"/><path class="prefix__cls-14" d="M173.87 65.16s-16.47-3.77-37.05 5.49-25 26.41-23.66 52.13 4.46 33.27-5.49 44.94c0 0 16.12-9.61 20.92-23s-.68-31.2 2.41-49.72 26.75-28.81 42.87-29.84zM245 413.79a58.36 58.36 0 00-18.25-47.89 82.41 82.41 0 01-38.57 45.23c1.94-7 .68-14.5-1.51-21.43s-5.29-13.55-7.15-20.57a37.37 37.37 0 01.2-20.76c-3.07 6.92-2.69 15.11-1.39 22.39 1.38 7.69 3.9 15.14 5.31 22.83.91 5 1.34 10.15.16 15.06s-4.16 9.59-8.68 11.86a77.38 77.38 0 0053-42.72c11.57 11.66 14.56 30.93 7.07 45.54 1.14-2.23 23-5.42 35.33-19.77a45.75 45.75 0 0010.9-34.48c-.39-3.41-1.16-6.93-.16-10.22s4.7-6.06 7.83-4.63c-1.4-1.89-4.53-1.53-6.2.12s-2.21 4.09-2.59 6.4c-4.4 26.57.64 37.75-35.3 53.04zM184 336.4c-31.84 45.87-29.28 45.61-79.78 50.49 6.3-2.52 12.91-14.84 13.69-18.63 4.27-13.14-7.51-26.91-14.26-41.46l-1.79-3.8c.64-2.16-16.77-16.81 27.76-48.94a85.21 85.21 0 00-15.35 8.47c-34.5 24.22-16 44.39-16.2 47 10.47 21.54 21.41 28.22 13.33 45.69-1.38 3.39-4 8.26-6.77 10.53a5.42 5.42 0 01-3.82 1.53c7.25 2.25 36.5 4.28 51.06-3.26 11.71-6.31 22.38-24.51 27.79-36.73v.2c.75-1.77 1.45-3.51 2.12-5.25z"/><path class="prefix__cls-7" d="M124.82 206.47c54.26 51.44 102.18 31.7 104.82 31.78a111 111 0 0043.42-24 117.59 117.59 0 0016.39-17.4c-6.77 12.94-19.55 26.69-33.05 35.28-45.21 29.43-100.09 15.5-131.58-25.66z"/><path class="prefix__cls-11" d="M193.69 251.05c.17.9 1.2 6.47 1.91 6.83s13.12 2.18 16.21 1 4-8.49 4-8.49-11.1 5.61-22.12.66z"/><path class="prefix__cls-2" d="M264.41 123.64s-4.46-5.49-15.43-7.2-16.12 7.2-11 10 19.55-.35 26.07 5.14.36-7.94.36-7.94zM153.24 121.58s4.46-5.48 15.44-7.2 16.12 7.2 11 10-19.55-.34-26.07 5.14-.37-7.94-.37-7.94z"/></g></svg>