<svg xmlns="http://www.w3.org/2000/svg" viewBox="0 0 239.97 310.44"><defs><style>.cls-1{fill:#dc99b1;}.cls-2{fill:aqua;}.cls-3{fill:#0ab1bf;}.cls-4{opacity:0.2;}.cls-5,.cls-7{fill:#fff;}.cls-5{opacity:0.32;}.cls-6{fill:#333f3d;}</style></defs><g id="Layer_2" data-name="Layer 2"><g id="monsters"><g id="layer"><g id="raphael"><g id="face"><path class="cls-1" d="M187,115.39,159.29,98.53l-19.28,26-21.61-16.5c-.26.47-7.72,13.3-18.17,31.66C93.06,133.19,78.16,119.8,71,113.35c-2.55,2.11-29.67,27.33-51.64,34.18a31.22,31.22,0,0,1-9.91,1.52A15.37,15.37,0,0,1,0,145.86a15.63,15.63,0,0,0,9.37,3.86,32.63,32.63,0,0,0,10.27-1.05c17.34-4.55,37.72-19.22,51.29-30.84,42.17,39-9.38-8.6,30.24,27.91,2.74-4.74,9.55-16.45,18.39-32l21.2,15.87c5.74-8.08,13.56-19.08,19.34-27.23l27.59,15.51c.12-.21,12.43-23,16.34-30.47C198.26,96.69,192.69,106.06,187,115.39Z"/><path class="cls-2" d="M96.53,70.34C99,85,92.18,98.3,81.38,100.1s-21.54-8.62-24-23.26,4.35-28,15.15-29.76S94.09,55.7,96.53,70.34Z"/><path class="cls-2" d="M171.88,53.47c-4.66,26.29-22.4,45.13-39.62,42.08S104.88,68.7,109.54,42.4,132-2.73,149.17.32,176.55,27.17,171.88,53.47Z"/><path class="cls-3" d="M158.4,4.36c7.56,9.94,10.91,26.16,7.84,43.46C161.57,74.12,143.83,93,126.62,89.9a22,22,0,0,1-9.23-4c3.93,5.16,9,8.63,14.87,9.68,17.22,3,35-15.79,39.62-42.08C175.64,32.31,169.79,12.78,158.4,4.36Z"/><g class="cls-4"><path d="M119.59,279.17s-4.17,9.95,13.78,14.82,30.74-15.79,22.12-25.81S120.62,266.78,119.59,279.17Z"/><path d="M172.16,284.21c-.67,1.6,4.53,11.7,14.22,7.46s14.59-19.54,4.86-25.12S172.16,284.21,172.16,284.21Z"/><path d="M167.5,252.09c-2.84,18.38,12.82,14.42,19.18,4.63s4.17-26.16-5.1-24.76S168.44,246,167.5,252.09Z"/><path d="M209.83,255.48c2.41,3.45,12.59,8.66,16.22-4.52S200.09,241.53,209.83,255.48Z"/><path d="M212.23,201.33c0,1.07-.86,22.26,2.3,29,3,6.45,18.3.88,15.28-19.62S212.53,191.83,212.23,201.33Z"/><path d="M130,299.4a5.73,5.73,0,1,1-7.64,3A5.81,5.81,0,0,1,130,299.4Z"/><path d="M163.09,294.83a3.76,3.76,0,1,1-4.77,2.08A3.67,3.67,0,0,1,163.09,294.83Z"/><path d="M237.11,185c2.5,1.05,3.57,4.2,2.38,7s-4.18,4.28-6.68,3.24-3.56-4.2-2.38-7S234.61,183.93,237.11,185Z"/></g><path class="cls-5" d="M27.75,178.09c-.6,1.16-9.67,33.08,3.15,63.2C40.36,263,58,277.43,80.07,286.66,62.39,282.76,45,274.84,31.86,262-8.49,222.55,4.47,161.67,3.2,170.09a13.09,13.09,0,1,1,24.55,8Z"/><path class="cls-6" d="M154.68,32.89c0,10.57-6.37,19.15-14.23,19.15s-14.24-8.58-14.24-19.15,6.38-19.14,14.24-19.14S154.68,22.32,154.68,32.89Z"/><path class="cls-6" d="M89.4,64.8c0,7.32-5.39,13.25-12,13.25s-12-5.93-12-13.25,5.38-13.26,12-13.26S89.4,57.48,89.4,64.8Z"/><path class="cls-7" d="M122.25,35.69c-4.5,21.73-3.78,50.94,18,43.39-22,9.24-25.06-21.24-21.88-44.08a2,2,0,1,1,3.87.66Z"/><path class="cls-7" d="M74.18,88.85c-9.57-1.51-13.91-11.12-14.72-20.13-.25-2.76,4.09-2.89,3.93-.06C63.65,69.53,61.77,84.89,74.18,88.85Z"/><path class="cls-7" d="M85,57.93a4.42,4.42,0,1,1-4.42-4.42A4.42,4.42,0,0,1,85,57.93Z"/><path class="cls-7" d="M155.66,17.68a6.63,6.63,0,0,1-13.25,0,6.63,6.63,0,0,1,13.25,0Z"/></g></g></g></g></g></svg>