<svg xmlns="http://www.w3.org/2000/svg" viewBox="0 0 563.87 438.35"><defs><style>.cls-1{isolation:isolate;}.cls-2{fill:#ff94cd;}.cls-3{fill:#f060ad;}.cls-4{fill:#a14073;}.cls-5{fill:#9c3f70;}.cls-6{fill:#09768f;}.cls-7{fill:#086980;}.cls-8{fill:#076075;}.cls-9{fill:#065466;}.cls-10{opacity:0.57;}.cls-10,.cls-11,.cls-21{mix-blend-mode:screen;}.cls-11{opacity:0.83;}.cls-12{fill:#ff7dc3;}.cls-13{fill:#c4e8ff;}.cls-14{fill:#053f4d;}.cls-15{fill:#fff;}.cls-16{fill:#c7c3bf;}.cls-17{fill:#d4145a;}.cls-18{fill:#d62767;}.cls-19{fill:#0a8cab;}.cls-20{fill:#ffaed8;}.cls-21{fill:#e3f4ff;opacity:0.17;}.cls-22{fill:#ffd4e9;}.cls-23{fill:#0db1d6;}.cls-24{fill:#c75090;}.cls-25{fill:#d874ad;}.cls-26{fill:#8f3966;}</style></defs><g class="cls-1"><g id="Layer_2" data-name="Layer 2"><g id="monsters"><g id="layer"><g id="edward"><g id="body"><path class="cls-2" d="M257.85,26C278.14,22.26,302.5,40.55,301,62.7c-.39,8.84-5.1,20.88-13.8,30.28,9.46-31.8,1.18-40.87-12.22-48.53-9-5.08-15.79-4.4-15.34-4.87Z"/><path class="cls-2" d="M245.17,61.66c3.38-5.46,12.76-8.78,24.73-4,11.63,6.51,13.44,26.89,13.08,40.23-.89-9.25-3.49-22.3-8.67-30-3.9-5.72-7-5.77-11.6-6.23-9-.49-11,4.33-10.63,3.76Z"/><path class="cls-3" d="M151.4,183.27s-45.31,127.36-47.95,132c-1,1.81-24.94,67.34-40.73,73.8s-73.22,5.77-61,21.91,46-3.57,46-3.57-23.82,5.12-19.1,19.11,43.3-22.17,43.3-22.17,12.29-10.06,16.92-.3,11.4,23.36,20.32,10.39-3.36-22-6-28.61,39.77-98.64,69.41-110.49S151.4,183.27,151.4,183.27Z"/><path class="cls-4" d="M149.09,189.77c-.82,3.56-7.06,37-3.79,52.43,2.09,9.91,6.51,25.39,16.49,39.93,29.38-12-10.39-98.86-10.39-98.86S150.56,185.65,149.09,189.77Z"/><path class="cls-4" d="M146.3,232.13a4.91,4.91,0,1,1-5.72-3.93A4.89,4.89,0,0,1,146.3,232.13Z"/><path class="cls-4" d="M136.16,245.66c-3.47.52-7.29,4.68-6.88,12.26s5.29-2,11.79-5.51S138.22,245.35,136.16,245.66Z"/><path class="cls-4" d="M147.59,240.88s-3.6,3-.92,5.83S155.6,241.9,147.59,240.88Z"/><path class="cls-4" d="M124.77,271.31s-10.64,16.7-4.62,16.83,15.5-10.6,13.6-15.49S128.29,267.42,124.77,271.31Z"/><path class="cls-4" d="M139.9,260s-9,2.9-4.34,7.54S147.61,262.59,139.9,260Z"/><path class="cls-5" d="M423.33,171.42S462.5,300.8,464.91,305.57c.94,1.86,21.69,68.46,37.15,75.67S574.93,390.5,562,406s-45.82-5.76-45.82-5.76,23.55,6.24,18.17,20-42.19-24.21-42.19-24.21-11.8-10.64-16.89-1.11-12.51,22.79-20.8,9.4,4.42-21.83,7.36-28.28-35-100.43-64-113.69S423.33,171.42,423.33,171.42Z"/><path class="cls-6" d="M242.61,97.85s-10.78-5.56-19.83-38.61S176.87-5.46,138.25.8,76.33,57.85,81.9,85.68s26.78,48.35,55.31,43.48S176.87,110,172.69,97.85s-16-23-23.65-4.87-18.79,13.22-24.35-.34S129.21,62,148,62s31.31,7,33.4,33.4-5.57,43.83-5.57,43.83,16-2.09,17.74-14.61,12.53-2.44,12.53-2.44-7.66-10.43,2.78-16.69,34.79-7.66,34.79-7.66Z"/><path class="cls-7" d="M181.72,9c-19.4,16.68-27.63,43.28-30.12,53.17,10.1.54,18.13,3.55,23.35,11.25,10.7-10.81,31.47-15.71,46.68-17.91C215.33,36.86,200.46,19.16,181.72,9Z"/><path class="cls-7" d="M123.31,87.38c-1.23-10,5-20.51,16.2-24.08-1.78-16.61-1-45.42-.28-62.65-.33,0-.65.09-1,.15C110.85,5.24,91.15,32.11,84,57.28,97.36,72.24,114.43,85.53,123.31,87.38Z"/><path class="cls-8" d="M171,12c-.79,1.94-4.84,2.13-9.05.42s-7-4.67-6.18-6.61,4.84-2.14,9-.43S171.76,10.07,171,12Z"/><path class="cls-8" d="M150.71,8.67c0,1.7-1.65,3.07-3.68,3.07s-3.68-1.37-3.68-3.07S145,5.61,147,5.61,150.71,7,150.71,8.67Z"/><path class="cls-8" d="M166.16,27.19c-1,2.44-5.94,2.73-11,.63s-8.38-5.76-7.37-8.21,5.94-2.73,11-.63S167.17,24.74,166.16,27.19Z"/><path class="cls-9" d="M166.62,87.39c-11.41-9-14.24,4-17.88,11.33-6.11,12.37-18.61,11.77-25-3a25.24,25.24,0,0,1-1.78-6.6c-1.53-12.78,7.54-25.87,22.51-28.46,4.4-.18,16.32-2.33,26.19,4.45a27.62,27.62,0,0,1,9.12,10.65c3.88,7.72,4.91,17.45,4.77,26.05,0,12-2.63,26.51-8.46,37.61l-.54-.24c4.89-17.9,7-58.1-8.11-69.52-5.67-4.39-16-6-22.6-5.79-18.67.93-28.26,21.73-11.94,36.55,4.72,4.3,10.48-.9,12.63-5.29,2.28-4.66,4.78-9.58,9.09-11.85C158.27,81.23,163,82.24,166.62,87.39Z"/><g class="cls-10"><path class="cls-9" d="M110,109.6a48.63,48.63,0,0,1-7.62-8.42c-3-4.23,3.36-8.8,6.38-4.57a41.68,41.68,0,0,0,6.4,7.08C119,107.11,113.87,113,110,109.6Z"/></g><g class="cls-11"><path class="cls-9" d="M95.22,87.59C87.75,67.49,89,46,103.07,29.11c3.34-4,9.35,1.06,6,5-12.21,14.6-13,33.14-6.51,50.71C104.39,89.73,97,92.46,95.22,87.59Z"/></g><g class="cls-10"><path class="cls-9" d="M125.29,16.45a3.92,3.92,0,0,1,2.11-5.14A57.43,57.43,0,0,1,163,8.12c5.07,1.17,3.28,8.82-1.76,7.66C137.43,10.3,128.36,23.81,125.29,16.45Z"/></g><g class="cls-10"><path class="cls-9" d="M185.11,28a41.74,41.74,0,0,0-5.66-3.69c-4.55-2.52-.74-9.39,3.81-6.87A47,47,0,0,1,190.14,22C194.13,25.35,189.09,31.36,185.11,28Z"/></g><path class="cls-8" d="M190.63,37.72c-1,1.82-4.07,2-6.75.5s-4-4.27-2.94-6.09,4.07-2,6.75-.5S191.68,35.9,190.63,37.72Z"/><path class="cls-8" d="M197.66,78.44c-1.26,1.77-4.56,1.58-7.38-.42s-4.08-5.06-2.82-6.83,4.56-1.58,7.37.43S198.91,76.68,197.66,78.44Z"/><path class="cls-8" d="M192.93,88.56a3.81,3.81,0,1,1-3.81-3.68A3.75,3.75,0,0,1,192.93,88.56Z"/><path class="cls-6" d="M449.91,2.43c-38.61-6.26-75.49,25.4-84.53,58.45s-19.83,38.61-19.83,38.61H344.5s24.36,1.39,34.79,7.65,2.78,16.7,2.78,16.7,10.79-10.09,12.53,2.44,17.74,14.61,17.74,14.61-7.65-17.4-5.57-43.84,14.61-33.39,33.4-33.39,28.87,17,23.31,30.61-16.7,18.44-24.35.35-19.48-7.31-23.66,4.87,7,26.44,35.48,31.31,49.75-15.66,55.32-43.49S488.52,8.7,449.91,2.43Z"/><path class="cls-7" d="M406.44,10.58c19.4,16.69,27.63,43.29,30.12,53.17-10.1.55-18.13,3.55-23.35,11.26C402.51,64.2,381.74,59.3,366.53,57.1,372.83,38.5,387.7,20.8,406.44,10.58Z"/><path class="cls-7" d="M464.85,89c1.23-10-5-20.51-16.2-24.08,1.78-16.61,1-45.43.28-62.66l1,.15c27.4,4.45,47.1,31.32,54.23,56.49C490.81,73.88,473.73,87.16,464.85,89Z"/><path class="cls-8" d="M417.19,13.65c.79,1.95,4.84,2.14,9.05.43s7-4.67,6.19-6.62-4.85-2.14-9.05-.43S416.4,11.7,417.19,13.65Z"/><path class="cls-8" d="M437.45,10.31c0,1.7,1.65,3.07,3.68,3.07s3.68-1.37,3.68-3.07-1.65-3.07-3.68-3.07S437.45,8.62,437.45,10.31Z"/><path class="cls-8" d="M422,28.82c1,2.45,5.94,2.73,11,.64s8.38-5.77,7.37-8.21-5.94-2.73-11-.64S421,26.38,422,28.82Z"/><path class="cls-9" d="M421.54,89c11.41-9,14.25,4,17.88,11.33,6.12,12.37,18.61,11.77,25-3a25.17,25.17,0,0,0,1.78-6.59c1.53-12.79-7.53-25.87-22.51-28.46-4.4-.19-16.32-2.33-26.19,4.45-19.44,13-16.06,54.07-5.43,74.31l.54-.24c-4.89-17.91-7-58.1,8.11-69.53,5.67-4.39,16-6,22.6-5.79,18.67.93,28.26,21.74,11.95,36.56-4.67,4.24-10.54-1-12.64-5.29-2.28-4.67-4.78-9.59-9.09-11.86C429.9,82.87,425.17,83.87,421.54,89Z"/><g class="cls-10"><path class="cls-9" d="M478.2,111.24a49.15,49.15,0,0,0,7.63-8.43c3-4.22-3.37-8.8-6.39-4.57a41.74,41.74,0,0,1-6.4,7.09C469.13,108.74,474.29,114.66,478.2,111.24Z"/></g><g class="cls-10"><path class="cls-9" d="M492.94,89.23c7.47-20.1,6.27-41.61-7.85-58.49-3.34-4-9.35,1.06-6,5,12.21,14.61,13,33.15,6.51,50.72C483.77,91.37,491.13,94.1,492.94,89.23Z"/></g><g class="cls-10"><path class="cls-9" d="M462.88,18.08a3.94,3.94,0,0,0-2.11-5.14,57.37,57.37,0,0,0-35.62-3.18c-5.08,1.17-3.29,8.82,1.75,7.65C450.74,11.93,459.8,25.45,462.88,18.08Z"/></g><g class="cls-10"><path class="cls-9" d="M403.05,29.68A40.62,40.62,0,0,1,408.71,26c4.55-2.52.74-9.39-3.8-6.87A47.53,47.53,0,0,0,398,23.65C394,27,399.07,33,403.05,29.68Z"/></g><path class="cls-8" d="M397.54,39.36c1,1.82,4.07,2,6.74.5s4-4.27,2.94-6.09-4.07-2.05-6.74-.5S396.49,37.54,397.54,39.36Z"/><path class="cls-8" d="M390.5,80.08c1.26,1.77,4.56,1.58,7.38-.43s4.08-5.06,2.82-6.82-4.56-1.58-7.37.42S389.25,78.31,390.5,80.08Z"/><path class="cls-8" d="M395.24,90.2a3.8,3.8,0,1,0,3.8-3.68A3.74,3.74,0,0,0,395.24,90.2Z"/><path class="cls-2" d="M325.29,86.13c-5.55,4.22-24.76,8.94-79.55-5.67-73.05-19.48-114.1,109.23-90.44,176s-16,93.38-2.79,122.61S211,427.64,252.7,424.16s63.31-16,101.58-10.44,91.14-34.79,75.14-95.32S451.68,187.61,434.29,141,362.76,57.64,325.29,86.13Z"/><path class="cls-12" d="M434.29,141a111,111,0,0,0-36.21-48.51,108.64,108.64,0,0,1,15.6,27.89C431.07,167,400,234.93,416,295.46s-44.09,103.21-82.36,97.65-59.83,6.95-101.57,10.43c-27.78,2.32-58-5.53-79.05-19.66,16,26.44,60.32,43.56,99.66,40.28,41.75-3.48,73.1-7.22,111.37-1.65s81.35-43.58,65.35-104.11S451.68,187.61,434.29,141Z"/><path class="cls-5" d="M153,383.88c5.66,8.61,13.53,15.48,22.12,21,19.38,12.24,47.1,18.75,65.5,18.33,26,.16,66-9.74,123.24-2.61.19,0,24,5,46.07-19.44,32.94-36.69,17.33-83.83,17.33-85.26-9.08-40.08,4-82.37,10-122.52-2.15,20.46-6.42,40.63-8.71,61-5.51,45.9,2.71,62.36,3.44,68.34,10.28,45.92-13.39,87.15-45,99-13.47,5-21.64,2.69-31.26,1.6C276.44,414,231.55,444,174.6,405.72,166.05,400,158.34,392.72,153,383.88Z"/><path class="cls-13" d="M267.76,192.52c-5.6,14.6-19.3,22.91-30.6,18.58s-15.92-19.69-10.32-34.28,19.3-22.92,30.6-18.58S273.36,177.92,267.76,192.52Z"/><path class="cls-4" d="M239.86,208.4c-11.3-4.34-15.92-19.69-10.32-34.28A35.07,35.07,0,0,1,236,163.4a34.3,34.3,0,0,0-9.14,13.42c-5.6,14.59-1,29.94,10.32,34.28,8.11,3.11,17.45-.3,24.16-7.86C254.94,208.87,246.93,211.11,239.86,208.4Z"/><path class="cls-13" d="M308.3,192.52c5.6,14.6,19.31,22.91,30.61,18.58s15.92-19.69,10.32-34.28-19.31-22.92-30.61-18.58S302.7,177.92,308.3,192.52Z"/><path class="cls-4" d="M349.23,176.82A34.24,34.24,0,0,0,340,163.28a35.28,35.28,0,0,1,6.33,10.59c5.6,14.6,1,29.94-10.32,34.28-7,2.7-15,.5-21.33-5,6.71,7.65,16.12,11.12,24.28,8C350.21,206.76,354.83,191.41,349.23,176.82Z"/><ellipse class="cls-14" cx="319.52" cy="170.95" rx="9.53" ry="9.97"/><path class="cls-14" d="M247.73,171a9.54,9.54,0,1,0,9.54-10A9.77,9.77,0,0,0,247.73,171Z"/><path class="cls-4" d="M217.82,224.72c-2.42,2.25-17.22,19.3-1.57,49.57s71,56.35,98.1,52.7,72-40.7,72.53-76.18-16.69-42.27-40.18-26.09S295.57,250.28,271,236.2,225.65,217.41,217.82,224.72Z"/><path class="cls-15" d="M322.14,238c-17,6.54-34.74,7.59-51.1-1.8l-.65-.38c.19,12,4.74,27.7,10.64,28.47,11.8,1.54,25.85,2.69,35.08-.38C320.71,262.37,322,250,322.14,238Z"/><path class="cls-16" d="M271,236.2l-.65-.38c0,.91.06,1.83.12,2.77.34.35.7.7,1.08,1,3.09,2.77,14.56,6.33,19.85,7.63,1.54.55,2,1.88,2.11,3.7a48.77,48.77,0,0,0,2.13,10.88s1.11-9.47,2.2-14.38c7.34-.9,19.7-4,24.22-7.29,0-.72,0-1.44,0-2.16C305.16,244.54,287.4,245.59,271,236.2Z"/><path class="cls-17" d="M340.18,262c-25.05-2.35-33.92,12.26-33.92,12.26s-29.22-11.74-49.05-5.22c-11.32,3.73-22.14,13.24-29.33,20.72,22.68,23,64.13,40.21,86.47,37.2,20.09-2.7,49.89-23.71,64.24-48.83C369,271.52,354.64,263.38,340.18,262Z"/><path class="cls-18" d="M254.77,290.3s20.62-14.23,38.29-5.89,27,17.18,23.56,28.47S261.65,319.75,254.77,290.3Z"/><path class="cls-18" d="M334.54,270.18s-11.54,2.45-15.71,9.08,4.66,29.45,15.22,27.49,29.2-17.43,24.29-27S337,270.67,334.54,270.18Z"/><path class="cls-19" d="M274.66,123.46S246.36,161,235.9,163.7s-6.2-6.36-6.2-6.36-15.53,7.75-22,.27.11-19.48,10.34-18.35S273.24,128,274.66,123.46Z"/><path class="cls-19" d="M310.94,119.15s24.59,40,34.74,43.76,6.77-5.74,6.77-5.74,14.72,9.2,21.91,2.38,1.76-19.4-8.54-19.26S311.92,123.77,310.94,119.15Z"/><path class="cls-20" d="M166.22,249.3c-2.17-3.85-3.08-9.2-3.54-13.58-1.51-17,9.91-37.68,18-54.76-3,.55-14,8.21-22.85,22a75.44,75.44,0,0,1,.76-10.92,69.74,69.74,0,0,1,4.32-16.63,46.65,46.65,0,0,1,9-14.56,29.56,29.56,0,0,1,14.83-8.62,28.66,28.66,0,0,0-15.85,7.56,45.12,45.12,0,0,0-10.33,14.6,70,70,0,0,0-5.21,17.15c-2.11,12.47-.53,20.11-.4,24.31,1.75-3.05,5-10.86,13-20.17-6,14.28-9.78,26.59-8,40.39,1.66,12,5.23,15,7,17.23,1.75-4.71,6.38-18.94,12.68-21.88C173.93,233.34,168.6,243.89,166.22,249.3Z"/><path class="cls-20" d="M404.43,249.3a24.57,24.57,0,0,0,2.19-5.67c5.47-21.12-5.12-43.58-13.42-62,3.79.67,6,4.9,8.34,7.18,3.75,3.27,8.64,10,11.32,14.18.1-20.8-8.54-46-28.91-50.73a28.69,28.69,0,0,1,15.85,7.56c21.39,19.3,15.88,55.32,15.93,56.06-1.65-2.8-4.81-10.61-13-20.17,18.62,44,1.14,57.14,1.08,57.62-1.76-4.72-6.37-18.93-12.68-21.88C393.09,232.08,402.06,243.91,404.43,249.3Z"/><path class="cls-21" d="M254.28,163.91s-14.6,2.57-18.28,11.16-6,18,2,22.58,14.11-11.65,19.76-17.3S261.4,162.43,254.28,163.91Z"/><path class="cls-15" d="M253.67,176.49a3.32,3.32,0,1,1-3.31-3.5A3.4,3.4,0,0,1,253.67,176.49Z"/><path class="cls-15" d="M330.9,176.49a3.32,3.32,0,1,1-3.32-3.5A3.41,3.41,0,0,1,330.9,176.49Z"/><path class="cls-21" d="M316.38,165.38c-2.79,2.12-4.67,6.63,2.7,13.74S325,186,330.36,195.57s16.69.73,14.49-12S328,156.54,316.38,165.38Z"/><path class="cls-20" d="M217.82,224.72c-15,16.53-8.89,51,25.76,75.54,16.85,11.92,48.6,25.73,69.95,23.85,18.36-1.6,38.13-17.23,50.7-30.26,16.12-17.13,25.11-35.92,20.75-59.75a33.21,33.21,0,0,0-2.86-9.08c4.39,4.74,6.79,12,8.21,18.25,9.75,41.47-33.6,86.54-69.25,95.58-24.35,6.18-60.39-8.85-81.23-24.61-22-16.67-29.36-30.4-34-46.52C200.49,249,208,230.86,217.82,224.72Z"/><path class="cls-22" d="M344.27,318.12s-16.69,6.87-22.09,10.14,2.3,3.6,9.17,1.47S350.82,320.24,344.27,318.12Z"/><path class="cls-22" d="M292.7,327.89s-19.74-8.35-26.58-6.53S290.18,334.38,292.7,327.89Z"/><path class="cls-23" d="M237.92,140.92c-.49.16-21.6-2.62-24.87,5.23s7.69,8.68,7.69,8.68A5.42,5.42,0,0,1,219.1,147C222.21,141.9,237.92,140.92,237.92,140.92Z"/><path class="cls-23" d="M366.93,145.5c-8.59-3.44-27.73-7.12-27.73-7.12s21.48,5.89,27.37,11.54-.25,7.61-.25,7.61C372.7,156.54,375.52,148.94,366.93,145.5Z"/><path class="cls-24" d="M196.22,284c-4.67-.21-11.82,0-13.91,12.53s8.35,28.87,18.09,31.3S226.24,285.4,196.22,284Z"/><path class="cls-24" d="M176.4,337.42s5.89-20.17-4.2-32.34-24-6.61-26.79,1.39S155.88,351.69,176.4,337.42Z"/><path class="cls-24" d="M153.66,349.2c1.28-2.18,2.11-26.83-19.11-30.31s-19.78,17.9-13.92,24.7C126.17,350,142.18,368.69,153.66,349.2Z"/><path class="cls-4" d="M148.34,340.56a40.22,40.22,0,0,0-8.67,17.13c4.77.75,9.7-1.2,14-8.49.61-1,1.11-7.08-.77-13.54A64.55,64.55,0,0,0,148.34,340.56Z"/><path class="cls-4" d="M176.4,337.42a52.11,52.11,0,0,0,1.7-14c-5.29.29-14,2.35-23.27,10.44C160.25,340.24,167.67,343.49,176.4,337.42Z"/><path class="cls-4" d="M211.59,314.45c-8.3-.69-16.52,2.56-22,5.42,3.2,4,7,7,10.79,8S209,322.52,211.59,314.45Z"/><path class="cls-25" d="M126.78,323.93a11.66,11.66,0,0,0-5,11.9c1.47,8,9.21,15.22,12.15,12s3.56-8.72,9.45-12S138.07,320.24,126.78,323.93Z"/><path class="cls-25" d="M156.6,302.45s-5.89-1.35-7.11,7.73,3.8,14.6,6.62,12.15a24.39,24.39,0,0,1,13.26-5.15C174.27,316.93,170.22,299.51,156.6,302.45Z"/><path class="cls-25" d="M193.09,288.67c-3.05,1.67-7.53,7.36-5.89,12.59s4.91-.49,14.73.33S209.59,279.63,193.09,288.67Z"/><path class="cls-24" d="M183.13,326.41a6.15,6.15,0,0,0-1.71-.34c-4.94-.5-19.26.51-33.08,16.69-16.35,19.13-9.74,41.74,4.52,61.57s40.56,41.08,62.15,31.76c12.76-5.51,21-14,16.47-44.63s12.84-34.33,2.44-56.71C218.12,300.77,183.13,326.41,183.13,326.41Z"/><path class="cls-26" d="M233.92,334.75c-7.07-15.19-18-18.47-27.87-17.44,8,.9,15.92,5.47,21.49,17.44,10.4,22.38-7,26.09-2.44,56.71s-3.72,39.12-16.47,44.63a27.52,27.52,0,0,1-8,2.09A28.44,28.44,0,0,0,215,436.09c12.76-5.51,22.2-13.32,17.68-43.94S244.32,357.13,233.92,334.75Z"/><path class="cls-25" d="M172.15,343.31a21,21,0,0,0-7.32,6.63,29.61,29.61,0,0,0-3.32,26.75c6.55,19.31,41.56,58.9,51.38,46.8s-3.28-24.22-9.82-37.31,21.93-19.3,20.29-32.72C221.77,340.44,208.94,323,172.15,343.31Z"/><path class="cls-4" d="M148,360.67c-.6,2.92-2.17,5.06-3.5,4.78s-1.91-2.86-1.3-5.78,2.17-5.07,3.5-4.79S148.65,357.75,148,360.67Z"/><path class="cls-4" d="M156.44,349.7a2.42,2.42,0,1,1-2.37-2A2.2,2.2,0,0,1,156.44,349.7Z"/><path class="cls-4" d="M157.42,372.11c0,2.62-1.24,4.75-2.78,4.75s-2.78-2.13-2.78-4.75,1.24-4.74,2.78-4.74S157.42,369.49,157.42,372.11Z"/><path class="cls-4" d="M152,384.46c0,1.77-1.06,3.2-2.37,3.2s-2.37-1.43-2.37-3.2,1.06-3.19,2.37-3.19S152,382.7,152,384.46Z"/><path class="cls-24" d="M390.38,281.27c4.68-.21,11.83,0,13.92,12.53s-8.35,28.87-18.09,31.31S360.37,282.67,390.38,281.27Z"/><path class="cls-24" d="M410.21,334.7s-5.89-20.17,4.2-32.35,24-6.61,26.78,1.39S430.73,349,410.21,334.7Z"/><path class="cls-24" d="M433,346.48c-1.29-2.19-2.11-26.84,19.11-30.31s19.78,17.89,13.92,24.69C460.44,347.3,444.43,366,433,346.48Z"/><path class="cls-4" d="M438.27,337.83A40.34,40.34,0,0,1,446.94,355c-4.78.75-9.7-1.2-14-8.48-.61-1-1.11-7.09.77-13.55A64.55,64.55,0,0,1,438.27,337.83Z"/><path class="cls-4" d="M410.21,334.7a52.23,52.23,0,0,1-1.7-14c5.28.29,14,2.36,23.27,10.44C426.36,337.51,418.94,340.77,410.21,334.7Z"/><path class="cls-4" d="M375,311.72c8.31-.69,16.53,2.56,22,5.42-3.2,4-7.05,7-10.79,8S377.63,319.79,375,311.72Z"/><path class="cls-25" d="M459.82,321.2a11.66,11.66,0,0,1,5,11.9c-1.48,8-9.21,15.22-12.15,12s-3.56-8.72-9.45-12S448.53,317.52,459.82,321.2Z"/><path class="cls-25" d="M430,299.72s5.89-1.35,7.11,7.73-3.8,14.61-6.62,12.15a24.42,24.42,0,0,0-13.26-5.15C412.33,314.2,416.38,296.78,430,299.72Z"/><path class="cls-25" d="M393.52,285.94c3.05,1.67,7.52,7.36,5.89,12.6s-4.91-.49-14.73.32S377,276.9,393.52,285.94Z"/><path class="cls-24" d="M403.48,323.68a6.06,6.06,0,0,1,1.71-.34c4.93-.5,19.25.51,33.08,16.69,16.35,19.13,9.74,41.74-4.52,61.57s-40.56,41.08-62.16,31.76c-12.75-5.51-21-14-16.46-44.63s-12.84-34.33-2.44-56.7C368.48,298.05,403.48,323.68,403.48,323.68Z"/><path class="cls-26" d="M352.69,332c7.06-15.2,18-18.47,27.87-17.45-8,.9-15.92,5.47-21.49,17.45-10.4,22.37,7,26.09,2.44,56.7s3.71,39.12,16.46,44.63a27.67,27.67,0,0,0,8,2.09,28.48,28.48,0,0,1-14.38-2.09c-12.75-5.51-22.19-13.32-17.67-43.93S342.29,354.4,352.69,332Z"/><path class="cls-25" d="M417.9,342.55A29.83,29.83,0,0,1,425.1,374c-6.55,19.31-41.56,58.91-51.38,46.8s3.27-24.22,9.82-37.31-21.93-19.3-20.29-32.72S378.47,319.15,417.9,342.55Z"/><path class="cls-4" d="M438.56,357.94c.61,2.92,2.18,5.06,3.51,4.78s1.91-2.86,1.3-5.78-2.17-5.06-3.5-4.79S438,355,438.56,357.94Z"/><path class="cls-4" d="M430.17,347a2.41,2.41,0,1,0,2.37-2A2.2,2.2,0,0,0,430.17,347Z"/><path class="cls-4" d="M429.19,369.38c0,2.62,1.24,4.75,2.78,4.75s2.78-2.13,2.78-4.75-1.25-4.74-2.78-4.74S429.19,366.76,429.19,369.38Z"/><path class="cls-4" d="M434.59,381.74c0,1.76,1.06,3.19,2.37,3.19s2.37-1.43,2.37-3.19-1.06-3.19-2.37-3.19S434.59,380,434.59,381.74Z"/><path class="cls-26" d="M434.43,260.85s-3.93,6.87,2.45,10.06,9.82-12.27,5.89-16.69S435.65,256.43,434.43,260.85Z"/><path class="cls-26" d="M434.92,235.33s-7.37,7.6-1.72,10.06S439.09,234.59,434.92,235.33Z"/><path class="cls-26" d="M447.93,271.9s-10.8.24-6.14,6.13S454.06,274.6,447.93,271.9Z"/><path class="cls-26" d="M441.05,286.38s-7.36,4.66-.73,9.08S450.13,285.15,441.05,286.38Z"/><path class="cls-20" d="M196.17,113.9,194.35,117l3.64-.26c5.43-.4,16.68-1.11,21.93.38l-8.06,4.36c4.52,1.22,9.19,2.75,16.16,2.69a63.55,63.55,0,0,1-11.31-3l8.63-3.73c-1.56-.42-1-5.46-23.81-4.7,15.28-20.84,33.4-16.34,56.68-5.76-2.44-1.55-4.83-3.24-7.39-4.65C228.68,90.11,209.06,92.15,196.17,113.9Z"/><path class="cls-20" d="M354.34,91.9c-9.44-.28-21.19,6.38-27.66,13.35C333.58,100,345.5,94.19,354.13,95c6.63.77,13.14,3.83,19,7.27-7.66-.16-9.5,3-11.46,4.47,2.45,2.27,4.64,4.3,6.45,5.94-6.53,5.53-18.38,3-26.22-.07,9.26,5.48,22.7,8.58,29.69,1l.91-1c-.91-.93-1.7-1.79-5.5-5.58,7.56-3.49,21.57,3.49,25.74,4.38C390,109.76,371.79,92.87,354.34,91.9Z"/></g></g></g></g></g></g></svg>