<svg xmlns="http://www.w3.org/2000/svg" viewBox="0 0 692.38 171.6"><defs><style>.cls-1{fill:#390000;}</style></defs><g id="Layer_2" data-name="Layer 2"><g id="monsters"><g id="layer"><g id="edward"><path class="cls-1" d="M72.6,83.4l-.9,3.3,2.7,1.5,13.5-.6q12.6-.6,12.6,10.2a42.94,42.94,0,0,1-1.2,9q-3.9,3.9-17.1,6.9-15,3.3-18.3,5.4v3l2.4,1.5q15.6-3.3,25.5-3.3,14.7-.3,18.3.6,9,1.8,10.2,10.8,1.2,8.7-33.9,19.8-31.5,9.9-47.7,9.9a9.1,9.1,0,0,1-2.7-.3q-6-8.1-18.3-52.5Q12,89.7,6.6,70.8,0,47.1,0,32.7a40.32,40.32,0,0,1,.6-7.2q1.5-8.4,56.1-15.3,42.9-5.4,61.2-5.4a22.63,22.63,0,0,1,7.5,1.5q5.4,1.8,6,4.2,3,10.2,2.7,26.1-.3,21.6-2.1,25.2-3.3,6.6-21,11.1Z"/><path class="cls-1" d="M173.7,76.5l7.8-2.1-5.4-27q-3.6-17.7-3.6-26.7Q172.5,0,199.2,0a85.62,85.62,0,0,1,30.9,6q10.18,3.9,10.2,32.1,0,27.3-11.1,69.6-14.12,53.4-32.4,54-13.22.3-29.1-5.7Q132,142.2,132,120q0-15.3,15.9-30.6Q162,75.9,171.6,75.9A3.72,3.72,0,0,1,173.7,76.5Zm10.5,32.1h-5.7c-.6,0-1.76.65-3.45,2s-2.55,2.25-2.55,2.85q0,2.1,3.45,4.95a20.13,20.13,0,0,0,6.15,3.75A112.6,112.6,0,0,1,184.2,108.6Z"/><path class="cls-1" d="M309.89,116.4q-8.7,17.1-11.7,21.6-9,13.8-17.7,13.8-16.2,0-30-34.5-12.6-30.9-11.1-48.6.6-9.6,13.2-10.8,8.4-.9,15.9,8.7,2.4,3,11.4,15.6,5.4-8.4,14.1-19.5,7.8-6.3,15.3-6.3,13.5,0,29.7,23.1,25.2-17.1,32.7-17.1,3.9,0,7.95,6.45t4.05,10.65q0,8.4-17.4,35.7t-24.6,27.9Q333.29,144,309.89,116.4Z"/><path class="cls-1" d="M426.59,105l-.6-6.3q-2.7-1.5-19.5-5.4Q392.09,90,390,85.5q-5.7-12-5.7-21,0-4.2,2.1-17.1,1.5-9.3,27.3-9.3a152.07,152.07,0,0,1,33.9,3.9q21,4.8,30.6,13.2,8.4,7.5,8.4,26.4,0,18.3-11.1,51.3-12.9,38.7-27,38.7a98.1,98.1,0,0,1-36.9-7.5q-23.1-9.3-23.1-23.1,0-7.8,8.4-16.8Q402.89,117.9,426.59,105Zm-1.2,38.1q9.9,2.1,10.8,2.1,7.5,0,7.5-9,0-1.8-3.45-3.45a13.84,13.84,0,0,0-5.55-1.65q-6,0-7.8,6.9Q426,141,425.39,143.1Z"/><path class="cls-1" d="M543.89,105.6q-.6,18.6-1.2,40.2a21.43,21.43,0,0,1-5.55,13.95,16.82,16.82,0,0,1-13,5.85q-9.6,0-13.2-8.42-7.5-17.75-13.2-43.62l-10.2-45.11,3.3-12.63q19.5-6.91,34.5-6.92,14.4,0,15.6,8.7,9.9-3.6,24.3-3.6,21,0,21,11.4,0,9.9-8.4,33.6-4.2,6-13.5,6-2.1,0-6.45-.45t-6.45-.45A15.57,15.57,0,0,0,543.89,105.6Z"/><path class="cls-1" d="M625.78,76.5l7.8-2.1-5.4-27q-3.6-17.7-3.6-26.7,0-20.7,26.7-20.7a85.62,85.62,0,0,1,30.9,6q10.2,3.9,10.2,32.1,0,27.3-11.1,69.6-14.1,53.4-32.4,54-13.2.3-29.1-5.7-35.7-13.8-35.7-36,0-15.3,15.9-30.6,14.1-13.5,23.7-13.5A3.7,3.7,0,0,1,625.78,76.5Zm10.5,32.1h-5.7q-.9,0-3.45,2t-2.55,2.85q0,2.1,3.45,4.95a20.25,20.25,0,0,0,6.15,3.75A114.71,114.71,0,0,1,636.28,108.6Z"/></g></g></g></g></svg>