<svg xmlns="http://www.w3.org/2000/svg" viewBox="0 0 427.01 458.63"><defs><style>.cls-1{isolation:isolate;}.cls-2{fill:#3b4078;}.cls-3{fill:#1f2464;}.cls-4{fill:#636794;}.cls-5,.cls-6{fill:#7579a0;}.cls-6{opacity:0.4;mix-blend-mode:screen;}.cls-7{fill:#303670;}.cls-8{fill:#70749c;}.cls-9{fill:#878aac;}.cls-10{fill:#0b0252;}.cls-11{fill:#42477d;}.cls-12,.cls-19{fill:#787ba2;}.cls-13{fill:#525687;}.cls-14{fill:#dedfe8;}.cls-15{fill:#cfd0de;}.cls-16{fill:#fff;}.cls-17{fill:#00074f;}.cls-18{fill:#e0e1ea;}.cls-19{opacity:0.39;mix-blend-mode:multiply;}.cls-20{fill:#8083a7;}.cls-21{fill:#9699b7;}.cls-22{fill:#999cb9;}.cls-23{fill:#8f92b2;}</style></defs><g class="cls-1"><g id="Layer_2" data-name="Layer 2"><g id="monsters"><g id="layer"><g id="lisa"><g id="body"><path class="cls-2" d="M159.38,36.33S150.69,11.53,131,3.77,76.29-1.61,60.51,28.87s3.6,54.75,6.55,67.81c4.47,19.81-11.26,43.39-22.5,23.36a1.79,1.79,0,0,0-3.32.59c-.3,2.32.46,7,4.13,16.11,8.37,20.91,35.1,26.89,49.28,17.92S159.38,36.33,159.38,36.33Z"/><path class="cls-3" d="M107.59,62.9C97.37,44.24,88.94,22,83.68,5.92a51.32,51.32,0,0,0-23.17,23,55.11,55.11,0,0,0-3.95,9.66c.53.87,1.08,1.74,1.63,2.62a334.68,334.68,0,0,0,27,37.3c9.93,11.79,21,22.9,33.9,32.07.92.63,1.84,1.25,2.78,1.87,2.88-5.42,5.79-11,8.65-16.64A164.9,164.9,0,0,1,107.59,62.9Z"/><path class="cls-3" d="M109.33,134.79c-2.15-1.21-4.26-2.51-6.22-3.88s-4.2-2.64-6.23-4.07c-.23-.19-12.31-9.17-17-14.41l-5.15-5.37c-.21-.31-3.33-3.67-7.43-9.23a35.3,35.3,0,0,1-1.2,17,105.83,105.83,0,0,0,19.62,14l6.9,3.92a143.14,143.14,0,0,0,14,6.37Q108,137.09,109.33,134.79Z"/><path class="cls-3" d="M95.18,154.29c-12-2.37-27.06-12.76-34.87-29.47-2.33,2.22-5,3.29-7.74,2.66,7.22,13.37,19.09,23.82,36.58,29.26l.84.19A22.37,22.37,0,0,0,95.18,154.29Z"/><path class="cls-4" d="M177.65,38.42S174.87,16.5,153,7.81,120-.91,99.78,11.27,77.47,38.42,79.9,58.6,97,99,97,99a95.56,95.56,0,0,1,26.78-40.7C143.91,40.51,177.65,38.42,177.65,38.42Z"/><path class="cls-5" d="M147.56,13.89S140,5.71,123,8,92.91,24,91.6,35.16s10.15,19,17.67,10.8,20.29-24.22,30.11-24.22S151.49,20.43,147.56,13.89Z"/><path class="cls-6" d="M65.42,27.63c-7.2,11.46-11.61,32.56.66,39.11s-.49-24.22,4.91-35c3.46-6.93,18.48-14.56,17-18S72.62,16.18,65.42,27.63Z"/><path class="cls-7" d="M261.68,44.84S270.38,20,290,12.27s54.76-5.37,70.54,25.1S357,92.13,354,105.19c-4.5,19.94,11.47,43.7,22.72,23a1.6,1.6,0,0,1,2.91.11c.66,1.93.27,6.49-3.93,17-8.38,20.92-35.11,26.9-49.28,17.93S261.68,44.84,261.68,44.84Z"/><path class="cls-3" d="M313.47,71.41c10.22-18.66,18.66-40.88,23.92-57a51.37,51.37,0,0,1,23.17,22.95A57.36,57.36,0,0,1,364.51,47c-.54.87-1.08,1.75-1.63,2.62a335.12,335.12,0,0,1-27,37.3C326,98.74,314.87,109.86,302,119c-.91.63-1.84,1.25-2.77,1.86-2.88-5.41-5.8-11-8.66-16.63C299.52,94.54,307,83.29,313.47,71.41Z"/><path class="cls-3" d="M311.74,143.3c2.15-1.21,4.26-2.51,6.21-3.88s4.2-2.64,6.23-4.07c.23-.19,12.31-9.17,17-14.41l5.15-5.37c.2-.31,3.32-3.67,7.43-9.23a35.3,35.3,0,0,0,1.19,17,105.83,105.83,0,0,1-19.62,14l-6.9,3.92a145.4,145.4,0,0,1-14,6.37C313.55,146.3,312.65,144.83,311.74,143.3Z"/><path class="cls-3" d="M325.89,162.8c11.94-2.37,27.05-12.76,34.87-29.47,2.33,2.22,5,3.29,7.73,2.66-7.21,13.36-19.09,23.81-36.57,29.25l-.84.19A21.63,21.63,0,0,1,325.89,162.8Z"/><path class="cls-8" d="M243.41,46.93s2.78-21.92,24.7-30.61,33-8.72,53.17,3.46,22.32,27.15,19.88,47.33-17.05,40.35-17.05,40.35a95.45,95.45,0,0,0-26.78-40.7C277.15,49,243.41,46.93,243.41,46.93Z"/><path class="cls-9" d="M273.5,22.4s7.53-8.18,24.55-5.89,30.1,16,31.41,27.16-10.14,19-17.67,10.8S291.5,30.25,281.68,30.25,269.58,28.94,273.5,22.4Z"/><path class="cls-6" d="M349.85,31.22c7.2,11.46,11.62,32.56-.65,39.11s2-25.11-4.91-35c-10.81-15.54-18.49-14.56-17-18S342.65,19.77,349.85,31.22Z"/><path class="cls-10" d="M15.15,375.06s-8.61,15.62-1.6,24.85,11.79,3.19,11.79-1S11,386.85,15.15,375.06Z"/><path class="cls-10" d="M21.25,381.05S25.5,403.63,36,407.88s15.05-9.16,7.53-10.8-17.34-13.09-18.33-18S21.25,381.05,21.25,381.05Z"/><path class="cls-10" d="M39.5,377.52s8.61,24.22,20.08,20.39,1.27-10.51-5.74-13.06A83,83,0,0,1,39.5,377.52Z"/><path class="cls-2" d="M77.28,205S2.14,281.14.06,342.71s53.42,47.85,60.13,33.1c6.54-14.4.24-51.38-3.93-73.3s25.2-61,25.2-61Z"/><path class="cls-10" d="M35.83,255.92c-1.22,1.77-2.43,3.58-3.64,5.41,16.69,20.15.55,50.08-25,48q-.83,2.26-1.56,4.53C38.54,320.67,60.33,279.4,35.83,255.92Z"/><path class="cls-10" d="M11.1,299.45c-1.22,2.78-2.35,5.58-3.4,8.38,17.73-5.28,28.87-25.2,22.6-43.6-1.9,2.94-3.77,5.95-5.59,9A30,30,0,0,1,11.1,299.45Z"/><path class="cls-10" d="M417.21,355.4s10.26,14.57,4.31,24.52-11.36,4.46-11.82.34S422.62,366.66,417.21,355.4Z"/><path class="cls-10" d="M409.23,365.37s-1.75,22.91-11.69,28.29-16-7.46-8.67-9.91,15.8-14.91,16.24-19.9S409.23,365.37,409.23,365.37Z"/><path class="cls-10" d="M390.69,363.87s-5.89,25-17.71,22.47-2.42-10.31,4.27-13.61A82.84,82.84,0,0,0,390.69,363.87Z"/><path class="cls-2" d="M334.18,196.49s83.06,67.47,91.9,128.44S378.23,378.37,370,364.44c-8.09-13.59-5.89-51-4.15-73.29s-31.75-57.89-31.75-57.89Z"/><path class="cls-10" d="M381,242.6q2.11,2.44,4.22,5c-14.38,21.86,5,49.83,30.15,44.93.72,1.44,1.4,2.88,2.06,4.33C385.41,307.25,359.21,268.62,381,242.6Z"/><path class="cls-10" d="M410.35,283.15c1.51,2.63,2.95,5.29,4.3,8-18.2-3.3-31.47-21.88-27.25-40.85,2.21,2.72,4.4,5.5,6.54,8.34A30,30,0,0,0,410.35,283.15Z"/><path class="cls-4" d="M126.8,374.08s4.18,62.1,27.14,78.28,36.65-2.7,38.09-15.14c2.49-21.49,5.22-51.66,7.3-58.44S126.8,374.08,126.8,374.08Z"/><path class="cls-11" d="M126.8,374.08a247.78,247.78,0,0,0,4.84,32.51c10.86-.71,29.71,1.67,39.81,23.87A147.27,147.27,0,0,1,180.22,456c7-4.11,11.06-12.33,11.81-18.82,2.49-21.49,5.22-51.66,7.3-58.44S126.8,374.08,126.8,374.08Z"/><path class="cls-11" d="M296.57,374.08s-4.18,62.1-27.14,78.28-38.09-2.61-38.09-15.14-5.22-51.66-7.3-58.44S296.57,374.08,296.57,374.08Z"/><path class="cls-12" d="M197.83,44S147.74,8.5,108.08,62.77,76.77,135.83,58,142.09s12.1,21.84,12.1,21.84-22.54,46.34-5.84,69.3,7.65,21.57,3.48,44.53,21.46,67.32,12.42,83.33-14.07,15.05-14.07,15.05,27.39,12.24,46.18,6l-9.05,20.18s41.74-3.48,50.09-11.83,9.74,23.65,16,25.74,34.78-26.44,45.92-16,22.26,21.57,24.35,13.91,16.69-15.3,32-7.65,16-8.35,28.53-9.74c0,0,9-9,17.39-2.09s33.4,9.74,49.4-16.69c0,0-11.13.69-19.48-20.88s0-44.53,2.78-67.49S339.76,263.84,339.76,252c0,0,11.14,6.62,22.27,0,0,0-5.92-4.52-10.09-26.09s-21.22-68.53-17.74-111.66-43.83-75.84-61.92-68.88-27.14-16.7-45.92-12.52S197.83,44,197.83,44Z"/><path class="cls-13" d="M366.9,378s-11.13.69-19.48-20.88,0-44.53,2.78-67.49S339.76,263.84,339.76,252c0,0,11.14,6.62,22.27,0,0,0-5.92-4.52-10.09-26.09s-21.22-68.53-17.74-111.66-43.83-75.84-61.92-68.88-27.14-16.7-45.92-12.52S197.83,44,197.83,44,239.51,47.27,267,67.56s43.2,125.65,17.67,148.56-9.82,49.09,15.71,65.45C325.47,297.65,265.81,363.08,311,392a10.63,10.63,0,0,1,6.46,2.62C325.85,401.6,350.9,404.38,366.9,378Z"/><path class="cls-11" d="M70.84,163.65Z"/><path class="cls-11" d="M348.16,352.09c-5.57-18.28.49-39.38,2.93-59.06,3.31-26.76-9.76-28.82-10.73-40.11,6.72,3.12,14.95,3.31,21.67-.91-11.56,6.5-22.58-.91-22.78-.94a16.16,16.16,0,0,0,2.22,9.51c1.4,2.61,3,5,4.36,7.47,11.67,21.28-10.83,53.13-2.06,85.3,2.84,10,9,22.53,18.68,26.36-14.14,19.66-34.75,19.1-42.78,12.5-5.67-4.84-12.62-4.3-18.47-.58-7.27,4.61-4.87.09-15.9,10.12-8.62,8.18-10.67-1.32-25.16-2-17.49-1-23.79,11.26-24.18,12.92-6.53-2.72-17-15.82-22.32-17.77-13.79-4.78-34.79,14.81-43,17.41-3-4.43-4.89-19.07-9.48-24.46-3.07-3.45-7-3.46-10.44-.2-5.94,5.78-33.17,9.32-41.37,10.25L119,376c-6.17,1.73-9.8,4.2-19,4.27-8.81.11-18.65-2-27-4.62,4.09-3.44,11.06-12.18,12-19.57,2.69-23.16-20.24-56.69-13.75-83.57,4-17.38,10.88-18.16-6.12-41.07-15.43-21.91,5.22-67.13,5.6-67.77-1.6-1-17.71-8.41-18.89-15.51.69,6,12.1,13.08,17.37,16-9.37,19.49-19.06,51-7.14,69.31,15,21.88,8.9,20.55,4.48,37.8-4.77,17.94.29,29.87,7.83,57.13,2.17,7.86,6.14,22.25,3.43,29.56-1.44,4.16-15.13,21.35-15.13,21.35,12.46,5.06,29.76,9.42,43.09,7.9l-8.79,19.43,6.43-.59c27.8.35,50.21-12.1,51.53-12,4.61.35,8.87,29.86,8.87,29.86s23-13.41,35.76-19.47c3.34-1.58,9.2-3.95,12.28-1.95,3.61,2.33,26,28.49,31,13.38,2.77-8.35,14.45-10.46,23.2-7.77,4.36,1.46,6.64,3.37,11.18,3.86,10.64,1.11,13.6-8.72,20.85-11.3,6.62-2.36,11.19-8.47,17.38-3.42,12.82,10,40.1,4.48,55.05-20.54C370.61,376.71,355.3,375.23,348.16,352.09Z"/><path class="cls-14" d="M180.88,172.13c-6.49,16.92-22.38,26.57-35.49,21.54s-18.46-22.83-12-39.76,22.38-26.57,35.49-21.54S187.38,155.2,180.88,172.13Z"/><path class="cls-15" d="M138.58,159.07c6.5-16.93,22.39-26.57,35.49-21.54a19.4,19.4,0,0,1,4.34,2.31,20.82,20.82,0,0,0-9.49-7.47c-13.11-5-29,4.62-35.49,21.54-5.73,14.92-2.25,30.51,7.63,37.45C135.31,183.33,134,171,138.58,159.07Z"/><path class="cls-3" d="M179.68,163.05c0,7.94-6.15,14.37-13.74,14.37S152.2,171,152.2,163.05s6.15-14.37,13.74-14.37S179.68,155.12,179.68,163.05Z"/><path class="cls-16" d="M160.16,164.58l-16.69,4.91s-.66,7.85,3.93,11.78l14.07-12.44Z"/><path class="cls-17" d="M173.58,163.05a7.65,7.65,0,1,1-7.64-8A7.82,7.82,0,0,1,173.58,163.05Z"/><path class="cls-14" d="M213,167.22c6.49,16.92,22.38,26.57,35.49,21.54s18.46-22.83,12-39.75S238,122.44,224.91,127.46,206.45,150.29,213,167.22Z"/><path class="cls-15" d="M255.25,154.16c-6.5-16.93-22.39-26.57-35.49-21.54a19.4,19.4,0,0,0-4.34,2.31,20.82,20.82,0,0,1,9.49-7.47c13.11-5,29,4.62,35.49,21.55,5.73,14.91,2.25,30.5-7.63,37.44C258.52,178.43,259.82,166.08,255.25,154.16Z"/><path class="cls-3" d="M214.15,158.15c0,7.93,6.15,14.37,13.74,14.37s13.74-6.44,13.74-14.37-6.15-14.38-13.74-14.38S214.15,150.21,214.15,158.15Z"/><path class="cls-16" d="M233.67,159.67l16.69,4.91s.66,7.85-3.93,11.78l-14.07-12.43Z"/><path class="cls-17" d="M220.25,158.15a7.65,7.65,0,1,0,7.64-8A7.82,7.82,0,0,0,220.25,158.15Z"/><path class="cls-18" d="M184.91,224.71c-.17,7,.34,15.76,3.93,16.22,6,.79,14.61,3.13,19.31,1.57,3-1,3.22-10.84,3-17.95A57.21,57.21,0,0,1,184.91,224.71Z"/><path class="cls-18" d="M227.86,235c3.66,1.31,13.31.79,16.18-3.65,1.77-2.74,2-12.53,1.65-19.69a120.94,120.94,0,0,1-20.15,11C225.41,228.11,225.81,234.29,227.86,235Z"/><path class="cls-18" d="M168.36,236.33c-3.65,1.31-13.31.79-16.18-3.65-1.77-2.74-2-12.53-1.64-19.69a121.18,121.18,0,0,0,20.14,11C170.82,229.42,170.41,235.6,168.36,236.33Z"/><path class="cls-19" d="M117.94,126.87s-15.7,44.91-32.88,46.38c0,0,17.42,7.37,29.2,4.17a62.73,62.73,0,0,0,20.62-10.3l-.49,5.4s25-4.91,33.87-17.67,9.57-29.21,8.34-49.09,15-16.44,19.64-21.35,2.7-29,2.7-29L154.27,78Z"/><path class="cls-20" d="M198.94,55.45c-.21-2.38-22.59-6-25.32-6.38-8.93-1.37-18.14-1.76-27.06-.14-15.95,2.89-29,14.54-37.62,27.82-20.44,31.66-7.55,46.86-7.75,63.2-.16,13.31-7.57,26.35-16.13,33.3,0,0,21.1,1.48,33.87-9.81S141,127.6,141,127.6s3.44,24.06-1,31.42c0,0,37.8-11.29,30.93-52.52,0,0-1.41-18.84,5.72-19.31C201.54,85.55,198.94,55.48,198.94,55.45Z"/><path class="cls-21" d="M198.94,55.45c-.39-1.12-4.41-2.06-5.79-2.4-48-11.77-68.74.49-84,25.24-19.12,29.95-7.25,45.22-7.35,61.2,0,8.54-3.26,17.36-8,24.32a47.47,47.47,0,0,1-4,5.07,43.32,43.32,0,0,1-4.72,4.37c10.22-8.91,15.7-22.75,15.5-33.76a64.72,64.72,0,0,0-1.87-12.57c-3.69-17-3.42-30.28,8.8-49.67A72.39,72.39,0,0,1,124.8,58a49.7,49.7,0,0,1,23.76-10.13C166.23,45.44,198.05,52.42,198.94,55.45Z"/><path class="cls-2" d="M198.94,55.45c.26,10.23-3.09,22.86-12.34,27.83-9.61,5.38-17.67-3.68-17.22,23.48-.3,1.25,7.69,33.57-26.09,48.89,2.33-10.38-.55-27.5-1.49-34.87L139.39,127c-15.29,39.21-31,46.14-54.33,46.26,23.18,1.87,39.37-5.32,54.9-38.85,2.06,26-3.19,23.87-4,28,4.21-1.81,8.2-1.47,19.91-9.78,10.22-7.89,16-19,17.13-29.26,1.26-6.12-.37-16.52-.43-17.15l0,.15c-.34-4.34-.46-15.92,3.4-17.73,1.38-.62,16.23,0,21.42-17A41.48,41.48,0,0,0,198.94,55.45Z"/><path class="cls-22" d="M168.5,54.79s-15.7-3.6-35.34,5.24-23.89,25.2-22.58,49.74,4.26,31.74-5.23,42.87c0,0,15.38-9.16,20-21.93s-.66-29.78,2.29-47.45S153.12,55.77,168.5,54.79Z"/><path class="cls-22" d="M162.94,64.28a23.05,23.05,0,0,0-16.69,19.31c-2.29,16,8.84,29.12,7.85,45.16s-6.21,19.63-6.21,19.63,17-17.34,16-31.08-5.56-29.78-5.23-38.62A28.6,28.6,0,0,1,162.94,64.28Z"/><path class="cls-12" d="M292.13,271a135.35,135.35,0,0,0-10.73-23.49c4.28,14.31,12.59,44.68,12.78,61.65a86.44,86.44,0,0,1-8.11,32.92c-1.78-3.76-4.17-8-7.35-10.71,3.47,4.88,5.15,12.43,6.55,17.91C303.48,321.62,303.64,303.44,292.13,271Z"/><path class="cls-20" d="M236.35,387.42a55.68,55.68,0,0,0-17.41-45.69,78.67,78.67,0,0,1-36.8,43.15c1.85-6.67.65-13.84-1.44-20.44s-5-12.93-6.82-19.63a35.71,35.71,0,0,1,.19-19.82c-2.93,6.61-2.57,14.42-1.32,21.37,1.31,7.34,3.72,14.45,5.06,21.79.87,4.74,1.28,9.67.16,14.37s-4,9.15-8.29,11.31a73.82,73.82,0,0,0,50.56-40.76c11,11.12,13.89,29.51,6.74,43.45,1.09-2.13,22-5.17,33.72-18.86a43.69,43.69,0,0,0,10.39-32.9c-.37-3.26-1.11-6.62-.15-9.75s4.48-5.78,7.46-4.42c-1.33-1.8-4.32-1.46-5.9.11s-2.12,3.9-2.48,6.11C265.85,362.16,270.66,372.83,236.35,387.42Z"/><path class="cls-23" d="M178.17,313.58c-30.39,43.77-27.94,43.51-76.12,48.17,6-2.4,12.31-14.15,13.06-17.78,4.07-12.53-7.17-25.67-13.61-39.55l-1.7-3.64c.61-2.07-16-16,26.49-46.7a80.83,80.83,0,0,0-14.64,8.09C78.73,285.27,96.36,304.51,96.19,307c10,20.56,20.43,26.93,12.72,43.6-1.32,3.23-3.78,7.88-6.47,10a5.17,5.17,0,0,1-3.64,1.47c6.92,2.15,34.82,4.08,48.72-3.11,11.17-6,21.35-23.39,26.52-35a1.23,1.23,0,0,0,0,.19q1.08-2.52,2-5Z"/><path class="cls-13" d="M121.71,189.61c51.77,49.08,97.48,30.25,100,30.33a106,106,0,0,0,41.42-22.89,111.92,111.92,0,0,0,15.64-16.6c-6.46,12.35-18.66,25.47-31.54,33.66C204.12,242.18,151.75,228.88,121.71,189.61Z"/><path class="cls-16" d="M153.29,221.6s1.47,9.21,2.08,10.92,8.59,2.34,8.59,2.34l1.23-5.9S156.6,226.76,153.29,221.6Z"/><path class="cls-16" d="M187.42,232.15c.16.85,1.14,6.17,1.82,6.51s12.52,2.09,15.46,1,3.81-8.1,3.81-8.1S197.93,236.89,187.42,232.15Z"/><path class="cls-16" d="M227.41,226s.73,6.38,1.59,7.24,10.92-1.47,11.78-2.21,2.33-11.41,2.33-11.41S235.38,227.86,227.41,226Z"/><path class="cls-17" d="M245.08,108.13s-4.26-5.23-14.73-6.87-15.38,6.87-10.47,9.49,18.65-.33,24.87,4.91S245.08,108.13,245.08,108.13Z"/></g></g></g></g></g></g></svg>