<svg xmlns="http://www.w3.org/2000/svg" viewBox="0 0 193.72 195.68"><defs><style>.cls-1{fill:#dedfe8;}.cls-2{fill:#cfd0de;}.cls-3{fill:#1f2464;}.cls-4{fill:#fff;}.cls-5{fill:#00074f;}.cls-6{fill:#e0e1ea;}.cls-7{opacity:0.2;}.cls-8{fill:#525687;}</style></defs><g id="Layer_2" data-name="Layer 2"><g id="monsters"><g id="layer"><g id="lisa"><g id="face"><path class="cls-1" d="M95.83,124.78c-6.5,16.92-22.39,26.57-35.49,21.54s-18.47-22.83-12-39.75S70.76,80,83.86,85,102.32,107.85,95.83,124.78Z"/><path class="cls-2" d="M53.52,111.72C60,94.79,75.91,85.15,89,90.18a19.81,19.81,0,0,1,4.34,2.31A20.82,20.82,0,0,0,83.86,85c-13.1-5-29,4.62-35.49,21.55C42.65,121.48,46.13,137.07,56,144,50.25,136,49,123.64,53.52,111.72Z"/><path class="cls-3" d="M94.62,115.71c0,7.93-6.15,14.37-13.74,14.37s-13.74-6.44-13.74-14.37,6.15-14.38,13.74-14.38S94.62,107.77,94.62,115.71Z"/><path class="cls-4" d="M75.1,117.23l-16.69,4.91s-.65,7.85,3.93,11.78l14.07-12.43Z"/><path class="cls-5" d="M88.52,115.71a7.65,7.65,0,1,1-7.64-8A7.82,7.82,0,0,1,88.52,115.71Z"/><path class="cls-1" d="M127.89,119.87c6.5,16.93,22.38,26.57,35.49,21.54s18.46-22.83,12-39.75S153,75.09,139.85,80.12,121.39,102.94,127.89,119.87Z"/><path class="cls-2" d="M170.19,106.81c-6.5-16.93-22.38-26.57-35.49-21.54a20.25,20.25,0,0,0-4.34,2.31,20.84,20.84,0,0,1,9.49-7.46c13.11-5,29,4.61,35.49,21.54,5.73,14.91,2.25,30.5-7.62,37.44C173.46,131.08,174.76,118.73,170.19,106.81Z"/><path class="cls-3" d="M129.09,110.8c0,7.93,6.16,14.37,13.75,14.37s13.74-6.44,13.74-14.37-6.15-14.37-13.74-14.37S129.09,102.86,129.09,110.8Z"/><path class="cls-4" d="M148.61,112.32l16.69,4.91s.66,7.86-3.92,11.78l-14.07-12.43Z"/><path class="cls-5" d="M135.2,110.8a7.65,7.65,0,1,0,7.64-8A7.82,7.82,0,0,0,135.2,110.8Z"/><path class="cls-6" d="M99.86,177.36c-.17,7,.33,15.76,3.92,16.23,6,.78,14.61,3.13,19.31,1.56,3-1,3.23-10.84,3-18A57.21,57.21,0,0,1,99.86,177.36Z"/><path class="cls-6" d="M142.81,187.68c3.65,1.3,13.3.78,16.17-3.65,1.77-2.74,2-12.54,1.65-19.7a120.6,120.6,0,0,1-20.15,11C140.35,180.76,140.75,186.94,142.81,187.68Z"/><path class="cls-6" d="M83.3,189c-3.65,1.3-13.3.78-16.17-3.66-1.78-2.73-2-12.53-1.65-19.69a120.54,120.54,0,0,0,20.15,11C85.76,182.07,85.36,188.25,83.3,189Z"/><path class="cls-7" d="M113.88,8.1C113.5,7,109.47,6,108.09,5.7c-48-11.77-68.73.49-84,25.24-19.13,30-7.26,45.22-7.36,61.2,0,8.54-3.25,17.36-8,24.32a48.87,48.87,0,0,1-4,5.07A43.42,43.42,0,0,1,0,125.91C10.22,117,15.7,103.15,15.5,92.14a65.47,65.47,0,0,0-1.86-12.57c-3.7-17-3.43-30.27,8.8-49.67a72.18,72.18,0,0,1,17.3-19.28A49.74,49.74,0,0,1,63.5.49C81.17-1.91,113,5.07,113.88,8.1Z"/><path class="cls-7" d="M113.88,8.1c.26,10.23-3.09,22.86-12.33,27.84-9.61,5.37-17.68-3.69-17.23,23.47C84,60.66,92,93,58.23,108.3c2.33-10.38-.55-27.5-1.48-34.86l-2.42,6.2C39,118.85,23.36,125.79,0,125.91c23.19,1.87,39.38-5.33,54.9-38.86,2.07,26-3.19,23.87-4,28,4.21-1.82,8.2-1.48,19.91-9.78C81,97.4,86.84,86.28,87.91,76c1.27-6.12-.36-16.52-.43-17.14l0,.14C87.17,54.7,87,43.11,90.9,41.3c1.39-.62,16.23,0,21.42-16.94A41.55,41.55,0,0,0,113.88,8.1Z"/><path class="cls-7" d="M83.45,7.45S67.74,3.85,48.1,12.68,24.22,37.88,25.52,62.42s4.26,31.74-5.23,42.87c0,0,15.38-9.16,20-21.93s-.65-29.77,2.29-47.45S68.07,8.43,83.45,7.45Z"/><path class="cls-7" d="M77.88,16.94a23,23,0,0,0-16.69,19.3C58.9,52.28,70,65.37,69.05,81.4S62.83,101,62.83,101s17-17.35,16-31.09S73.3,40.17,73.63,31.33A28.65,28.65,0,0,1,77.88,16.94Z"/><path class="cls-8" d="M36.65,142.27c51.77,49.07,97.49,30.24,100,30.32a106.17,106.17,0,0,0,41.43-22.88,113,113,0,0,0,15.63-16.61c-6.45,12.35-18.65,25.47-31.53,33.67C119.06,194.83,66.69,181.53,36.65,142.27Z"/><path class="cls-4" d="M68.23,174.25s1.47,9.21,2.09,10.93,8.58,2.33,8.58,2.33l1.23-5.89S71.54,179.41,68.23,174.25Z"/><path class="cls-4" d="M102.36,184.8c.16.86,1.15,6.17,1.82,6.51s12.52,2.09,15.47,1,3.8-8.1,3.8-8.1S112.87,189.54,102.36,184.8Z"/><path class="cls-4" d="M142.35,178.67s.73,6.38,1.59,7.24,10.92-1.47,11.78-2.21,2.33-11.41,2.33-11.41S150.32,180.51,142.35,178.67Z"/><path class="cls-5" d="M160,60.78s-4.26-5.23-14.73-6.87-15.38,6.87-10.47,9.49,18.65-.33,24.87,4.91S160,60.78,160,60.78Z"/></g></g></g></g></g></svg>