<svg xmlns="http://www.w3.org/2000/svg" viewBox="0 0 356.39 186.6"><defs><style>.cls-1{fill:#5e5402;}</style></defs><g id="Layer_2" data-name="Layer 2"><g id="monsters"><g id="layer"><g id="lisa"><path class="cls-1" d="M69.3,120q15.9,15.9,15.9,22.8,0,11.1-18.45,27.15T36.6,186.6Q20.1,171.9,9.3,122.7A388.91,388.91,0,0,1,0,39Q0,20.4,2.1,12,5.1,0,42.6,0A113.39,113.39,0,0,1,70.2,3.3Q89.7,8.1,90,18.3q.3,15.6-10.2,48.3Q69,100.2,69,115.5A31.86,31.86,0,0,0,69.3,120Z"/><path class="cls-1" d="M90.3,79.5q-1.8-12.6-1.8-13.8.9-16.2,45.9-16.2,12,0,16.2,7.2,3.28,5.7,3.3,18.3,0,7.8-2.7,11.1t-10.8,3.3Q108.29,89.7,90.3,79.5Zm0,24.9c.6-5.6,2.19-9.4,4.8-11.4q.9-.9,7.65-2.4a53.17,53.17,0,0,1,8.85-1.5q7.2,0,19.8,3.6,14.08,3.9,17.4,8.25t3.3,19.35a164.4,164.4,0,0,1-4.8,39.9q-5.4,21.6-12.6,21.3a67.64,67.64,0,0,1-26.7-6.3Q90.9,167.7,91.5,156q.28-5.7,6.6-19.2t6.3-19.8c0-2-2.16-3.9-6.45-5.7S91.09,107.2,90.3,104.4Z"/><path class="cls-1" d="M216.9,83.4l-.3.9a4.09,4.09,0,0,1,.6.9q2.38,3.3,10.5,10.8,7.19,6.3,9.9,11.1,7.2,12.9,5.7,21.6-6.3,35.1-66.9,32.4a42,42,0,0,1-11.1-2.35q-7.81-2.64-6.6-6.75l4.5-15.86q3.28-2.64,9-2.64H183a16.48,16.48,0,0,0,9.3-2.4c0-2.2-3.21-4.9-9.6-8.1q-14.4-7.5-18-9.9-9.62-6.6-9.9-16.2-.31-8.4,11.1-19.5a80.21,80.21,0,0,1,19.2-13.8q8.39-4.2,27.3-4.2,39.28,0,39.3,16.8a13.41,13.41,0,0,1-2.4,7.5c-2,3-4.2,4.2-6.6,3.6q-3.6-.6-13.21-2.4Q219,82.8,216.9,83.4Z"/><path class="cls-1" d="M296.39,112.8l-.6-6.3q-2.7-1.5-19.5-5.4-14.4-3.3-16.5-7.8-5.7-12-5.7-21,0-4.2,2.1-17.1,1.5-9.3,27.3-9.3a152.07,152.07,0,0,1,33.9,3.9q21,4.8,30.6,13.2,8.4,7.5,8.4,26.4,0,18.3-11.1,51.3-12.9,38.7-27,38.7a98.1,98.1,0,0,1-36.9-7.5q-23.1-9.3-23.1-23.1,0-7.8,8.4-16.8Q272.69,125.7,296.39,112.8Zm-1.2,38.1q9.9,2.1,10.8,2.1,7.5,0,7.5-9,0-1.8-3.45-3.45a13.84,13.84,0,0,0-5.55-1.65q-6,0-7.8,6.9Q295.79,148.8,295.19,150.9Z"/></g></g></g></g></svg>