<svg xmlns="http://www.w3.org/2000/svg" viewBox="0 0 203.04 205.09"><defs><style>.prefix__cls-1{fill:#dbe8ec}.prefix__cls-2{fill:#bde1ec}.prefix__cls-3{fill:#032052}.prefix__cls-4{fill:#fff}.prefix__cls-5{fill:#253236}.prefix__cls-7{opacity:.2}.prefix__cls-9{fill:#0e054a}</style></defs><g id="prefix__Layer_2" data-name="Layer 2"><g id="prefix__monsters"><g id="prefix__layer"><g id="prefix__jessica"><g id="prefix__face"><path class="prefix__cls-1" d="M100.44 130.78c-6.81 17.74-23.47 27.85-37.2 22.58s-19.35-23.92-12.54-41.67 23.46-27.85 37.19-22.58 19.36 23.89 12.55 41.67z"/><path class="prefix__cls-2" d="M56.1 117.1c6.81-17.74 23.46-27.85 37.2-22.58a20.57 20.57 0 014.54 2.42 21.91 21.91 0 00-10-7.83C74.16 83.84 57.5 94 50.7 111.69c-6 15.64-2.36 32 8 39.25-6.03-8.41-7.4-21.35-2.6-33.84z"/><path class="prefix__cls-3" d="M99.17 121.27c0 8.32-6.45 15.07-14.4 15.07s-14.4-6.75-14.4-15.07 6.45-15.06 14.4-15.06 14.4 6.79 14.4 15.06z"/><path class="prefix__cls-4" d="M78.71 122.87L61.22 128s-.68 8.23 4.12 12.35l14.75-13z"/><path class="prefix__cls-5" d="M92.78 121.27a8 8 0 11-8-8.37 8.2 8.2 0 018 8.37z"/><path class="prefix__cls-1" d="M134 125.64c6.81 17.74 23.46 27.85 37.2 22.58s19.35-23.93 12.54-41.67S160.32 78.7 146.58 84s-19.35 23.9-12.58 41.64z"/><path class="prefix__cls-2" d="M178.38 112c-6.81-17.74-23.46-27.85-37.2-22.58a21.34 21.34 0 00-4.55 2.43 21.88 21.88 0 0110-7.83c13.74-5.27 30.39 4.84 37.2 22.58 6 15.63 2.35 32-8 39.24 5.98-8.45 7.34-21.4 2.55-33.84z"/><path class="prefix__cls-3" d="M135.3 116.13c0 8.32 6.45 15.06 14.41 15.06s14.4-6.74 14.4-15.06-6.45-15.07-14.4-15.07-14.41 6.75-14.41 15.07z"/><path class="prefix__cls-4" d="M155.76 117.73l17.5 5.14s.68 8.24-4.12 12.35l-14.75-13z"/><ellipse class="prefix__cls-5" cx="149.71" cy="116.13" rx="8.01" ry="8.38"/><path d="M104.66 185.9c-.18 7.31.35 16.51 4.12 17 6.29.82 15.31 3.28 20.23 1.64 3.11-1 3.38-11.36 3.16-18.81a60 60 0 01-27.51.17z" fill="#e3e4ff"/><path class="prefix__cls-7" d="M119.36 8.49c-.4-1.17-4.62-2.16-6.07-2.51-50.34-12.34-72 .51-88 26.45-20 31.39-7.6 47.4-7.71 64.14 0 9-3.41 18.2-8.41 25.49A51.22 51.22 0 015 127.38 44.62 44.62 0 010 132c10.71-9.34 16.46-23.85 16.24-35.39a67.81 67.81 0 00-1.95-13.21c-3.87-17.77-3.58-31.73 9.23-52.06a75.65 75.65 0 0118.13-20.2A52 52 0 0166.56.52c18.52-2.52 51.87 4.8 52.8 7.97z"/><path class="prefix__cls-7" d="M87.46 7.8S71 4 50.42 13.29s-25 26.41-23.67 52.13 4.46 33.27-5.49 44.94c0 0 16.12-9.61 20.93-23s-.69-31.22 2.4-49.74S71.34 8.83 87.46 7.8z"/><path d="M38.41 149.11c54.26 51.44 102.18 31.7 104.83 31.78a111 111 0 0043.41-24A117.59 117.59 0 00203 139.51c-6.76 12.94-19.55 26.69-33 35.28-45.21 29.41-100.1 15.48-131.59-25.68z" fill="#f15a24"/><path class="prefix__cls-4" d="M107.29 193.69c.16.9 1.2 6.47 1.91 6.83s13.11 2.18 16.2 1 4-8.49 4-8.49-11.1 5.63-22.11.66z"/><path class="prefix__cls-9" d="M178 66.28s-4.46-5.49-15.44-7.2-16.12 7.2-11 10 19.55-.35 26.06 5.14.38-7.94.38-7.94zM66.84 64.22s4.45-5.48 15.43-7.2 16.12 7.2 11 9.95-19.55-.34-26.06 5.14-.37-7.89-.37-7.89z"/></g></g></g></g></g></svg>